# This file uses centimeters as units for non-parametric coordinates.

mtllib Altar_Candle.mtl
g default
v 0.256364 -0.411173 -0.321468
v -0.091493 -0.411173 -0.400864
v -0.370453 -0.411173 -0.178401
v -0.370453 -0.411173 0.178401
v -0.091493 -0.411173 0.400864
v 0.256364 -0.411173 0.321468
v 0.411173 -0.411173 0.000000
v 0.256364 0.091992 -0.321468
v -0.091493 0.091992 -0.400864
v -0.370453 0.091992 -0.178401
v -0.370453 0.091992 0.178401
v -0.091493 0.091992 0.400864
v 0.256364 0.091992 0.321468
v 0.411173 0.091992 0.000000
v 0.000001 -0.411173 0.000000
v 0.172758 0.309470 -0.207586
v -0.051869 0.309470 -0.258855
v -0.232004 0.309470 -0.115202
v -0.232006 0.309470 0.115201
v -0.051869 0.309470 0.258855
v 0.172758 0.309470 0.207586
v 0.272726 0.309470 0.000000
v 0.172758 2.756943 -0.207586
v -0.051869 2.756943 -0.258855
v -0.232004 2.756943 -0.115201
v -0.232006 2.756943 0.115201
v -0.051869 2.756943 0.258855
v 0.172758 2.756943 0.207586
v 0.272726 2.756943 -0.000000
v 0.215342 2.978391 -0.265590
v -0.072050 2.978391 -0.331185
v -0.302521 2.978391 -0.147391
v -0.302521 2.978391 0.147391
v -0.072050 2.978391 0.331185
v 0.215342 2.978391 0.265590
v 0.343243 2.978391 -0.000000
v 0.215342 3.450024 -0.265590
v -0.072050 3.450024 -0.331184
v -0.302519 3.450024 -0.147391
v -0.302521 3.450024 0.147391
v -0.072050 3.450024 0.331184
v 0.215342 3.450024 0.265589
v 0.343242 3.450024 -0.000000
v 0.169740 3.450024 -0.203474
v -0.050437 3.450024 -0.253727
v -0.227005 3.450024 -0.112919
v -0.227006 3.450024 0.112919
v -0.050437 3.450024 0.253728
v 0.169740 3.450024 0.203474
v 0.267727 3.450024 0.000000
v 0.169740 3.994040 -0.199237
v -0.050437 4.004241 -0.248444
v 0.007474 3.952738 -0.000000
v -0.227004 3.975659 -0.110569
v -0.227005 3.929817 0.110568
v -0.050437 3.901235 0.248445
v 0.169740 3.911436 0.199237
v 0.267726 3.952738 -0.000001
vt 0.597420 0.034089
vt 0.465231 0.003918
vt 0.359224 0.088456
vt 0.359224 0.224044
vt 0.465231 0.308582
vt 0.597420 0.278411
vt 0.656250 0.156250
vt 0.375000 0.312500
vt 0.410714 0.312500
vt 0.446429 0.312500
vt 0.482143 0.312500
vt 0.517857 0.312500
vt 0.553571 0.312500
vt 0.589286 0.312500
vt 0.625000 0.312500
vt 0.375000 0.688440
vt 0.410714 0.688440
vt 0.446429 0.688440
vt 0.482143 0.688440
vt 0.517857 0.688440
vt 0.553571 0.688440
vt 0.589286 0.688440
vt 0.625000 0.688440
vt 0.597420 0.721589
vt 0.465231 0.691418
vt 0.359224 0.775956
vt 0.359224 0.911544
vt 0.465231 0.996082
vt 0.597420 0.965911
vt 0.656250 0.843750
vt 0.500000 0.150000
vt 0.500000 0.837500
vt 0.597420 0.965911
vt 0.465231 0.996082
vt 0.359224 0.911544
vt 0.359224 0.775956
vt 0.465231 0.691418
vt 0.597420 0.721589
vt 0.656250 0.843750
vt 0.597420 0.965911
vt 0.465231 0.996082
vt 0.359224 0.911544
vt 0.359224 0.775956
vt 0.465231 0.691418
vt 0.597420 0.721589
vt 0.656250 0.843750
vt 0.597420 0.965911
vt 0.465231 0.996082
vt 0.359224 0.911544
vt 0.359224 0.775956
vt 0.465231 0.691418
vt 0.597420 0.721589
vt 0.656250 0.843750
vt 0.597420 0.965911
vt 0.465231 0.996082
vt 0.359224 0.911544
vt 0.359224 0.775956
vt 0.465231 0.691418
vt 0.597420 0.721589
vt 0.656250 0.843750
vt 0.597420 0.965911
vt 0.465231 0.996082
vt 0.359224 0.911544
vt 0.359224 0.775956
vt 0.465231 0.691418
vt 0.597420 0.721589
vt 0.656250 0.843750
vt 0.597420 0.965911
vt 0.465231 0.996082
vt 0.359224 0.911544
vt 0.359224 0.775956
vt 0.465231 0.691418
vt 0.597420 0.721589
vt 0.656250 0.843750
vn 0.222521 0.000000 -0.974928
vn 0.222521 0.000000 -0.974928
vn 0.220504 0.134339 -0.966091
vn 0.220380 0.138396 -0.965546
vn -0.623489 0.000000 -0.781832
vn -0.623489 0.000000 -0.781832
vn -0.617242 0.141214 -0.773997
vn -0.616939 0.144571 -0.773618
vn -1.000000 0.000000 0.000000
vn -1.000000 0.000000 0.000000
vn -0.989314 0.145797 -0.000001
vn -0.989314 0.145797 -0.000001
vn -0.623489 0.000000 0.781832
vn -0.623489 0.000000 0.781832
vn -0.616939 0.144571 0.773618
vn -0.617241 0.141214 0.773997
vn 0.222521 0.000000 0.974928
vn 0.222521 0.000000 0.974928
vn 0.220379 0.138396 0.965546
vn 0.220504 0.134339 0.966091
vn 0.900970 0.000000 0.433881
vn 0.900970 0.000000 0.433881
vn 0.893085 0.132013 0.430083
vn 0.893295 0.130255 0.430184
vn 0.900970 0.000000 -0.433881
vn 0.900970 0.000000 -0.433881
vn 0.893294 0.130255 -0.430184
vn 0.893085 0.132013 -0.430083
vn 0.000000 -1.000000 0.000000
vn 0.000000 -1.000000 0.000000
vn 0.000000 -1.000000 0.000000
vn 0.000000 -1.000000 0.000000
vn 0.000000 -1.000000 0.000000
vn 0.000000 -1.000000 0.000000
vn 0.000000 -1.000000 0.000000
vn 0.000000 -1.000000 0.000000
vn -0.000001 0.979181 0.202990
vn 0.000000 0.979181 0.202988
vn 0.000000 0.979182 0.202986
vn 0.000001 0.979181 0.202987
vn 0.000002 0.979182 0.202985
vn 0.000001 0.979182 0.202983
vn -0.000001 0.979182 0.202983
vn -0.000001 0.979181 0.202987
vn 0.191141 0.512009 -0.837444
vn 0.191141 0.512009 -0.837444
vn -0.528927 0.529464 -0.663252
vn -0.528927 0.529464 -0.663252
vn -0.843567 0.537023 -0.000003
vn -0.843567 0.537023 -0.000003
vn -0.528926 0.529463 0.663254
vn -0.528926 0.529463 0.663254
vn 0.191141 0.512009 0.837444
vn 0.191141 0.512009 0.837444
vn 0.899009 0.065924 0.432939
vn 0.898964 0.066678 0.432918
vn 0.898964 0.066678 -0.432918
vn 0.899009 0.065924 -0.432939
vn 0.222520 0.000000 -0.974928
vn 0.222520 0.000000 -0.974928
vn 0.222520 0.000000 -0.974928
vn 0.222520 0.000000 -0.974928
vn -0.623492 0.000000 -0.781830
vn -0.623492 0.000000 -0.781830
vn -0.623492 0.000000 -0.781830
vn -0.623492 0.000000 -0.781830
vn -1.000000 -0.000000 -0.000009
vn -1.000000 -0.000000 -0.000009
vn -1.000000 -0.000000 -0.000009
vn -1.000000 -0.000000 -0.000009
vn -0.623488 0.000000 0.781833
vn -0.623488 0.000000 0.781833
vn -0.623488 0.000000 0.781833
vn -0.623488 0.000000 0.781833
vn 0.222520 0.000000 0.974928
vn 0.222520 0.000000 0.974928
vn 0.222520 0.000000 0.974928
vn 0.222520 0.000000 0.974928
vn 0.900969 0.000000 0.433883
vn 0.900969 0.000000 0.433883
vn 0.900969 -0.000000 -0.433883
vn 0.900969 -0.000000 -0.433883
vn 0.213244 -0.285725 -0.934285
vn 0.213244 -0.285725 -0.934285
vn 0.221781 -0.081416 -0.971692
vn 0.221758 -0.082667 -0.971591
vn -0.595161 -0.298002 -0.746309
vn -0.595161 -0.298002 -0.746309
vn -0.621213 -0.085374 -0.778977
vn -0.621157 -0.086420 -0.778907
vn -0.952857 -0.303420 -0.000005
vn -0.952857 -0.303420 -0.000005
vn -0.996155 -0.087614 -0.000004
vn -0.996155 -0.087614 -0.000004
vn -0.595160 -0.298000 0.746311
vn -0.595160 -0.298000 0.746311
vn -0.621155 -0.086421 0.778908
vn -0.621211 -0.085375 0.778979
vn 0.213244 -0.285725 0.934285
vn 0.213244 -0.285725 0.934285
vn 0.221759 -0.082668 0.971591
vn 0.221782 -0.081416 0.971691
vn 0.866031 -0.275776 0.417058
vn 0.866031 -0.275776 0.417058
vn 0.898138 -0.079219 0.432519
vn 0.898176 -0.078680 0.432538
vn 0.866031 -0.275777 -0.417058
vn 0.866031 -0.275777 -0.417058
vn 0.898176 -0.078680 -0.432538
vn 0.898138 -0.079219 -0.432519
vn 0.222519 0.000001 -0.974928
vn 0.222519 0.000001 -0.974928
vn -0.623489 0.000002 -0.781832
vn -0.623489 0.000002 -0.781832
vn -1.000000 0.000002 -0.000004
vn -1.000000 0.000002 -0.000004
vn -0.623488 0.000001 0.781833
vn -0.623488 0.000001 0.781833
vn 0.222520 0.000001 0.974928
vn 0.222520 0.000001 0.974928
vn 0.900969 0.000000 0.433883
vn 0.900969 0.000000 0.433883
vn 0.900969 0.000001 -0.433883
vn 0.900969 0.000001 -0.433883
vn 0.000000 1.000000 0.000001
vn 0.000000 1.000000 0.000001
vn 0.000000 1.000000 0.000001
vn 0.000000 1.000000 0.000001
vn 0.000000 1.000000 0.000002
vn 0.000000 1.000000 0.000002
vn 0.000000 1.000000 0.000002
vn 0.000000 1.000000 0.000002
vn 0.000000 1.000000 0.000000
vn 0.000000 1.000000 0.000000
vn 0.000000 1.000000 0.000000
vn 0.000000 1.000000 0.000000
vn 0.000000 1.000000 -0.000001
vn 0.000000 1.000000 -0.000001
vn 0.000000 1.000000 -0.000001
vn 0.000000 1.000000 -0.000001
vn 0.000000 1.000000 -0.000001
vn 0.000000 1.000000 -0.000001
vn 0.000000 1.000000 -0.000001
vn 0.000000 1.000000 -0.000001
vn 0.000000 1.000000 0.000001
vn 0.000000 1.000000 0.000001
vn 0.000000 1.000000 0.000001
vn 0.000000 1.000000 0.000001
vn 0.000000 1.000000 0.000000
vn 0.000000 1.000000 0.000000
vn 0.000000 1.000000 0.000000
vn 0.000000 1.000000 0.000000
vn 0.220494 0.008454 -0.975352
vn 0.220494 0.008454 -0.975352
vn 0.220494 0.008454 -0.975352
vn 0.220494 0.008454 -0.975352
vn -0.619766 0.005548 -0.784767
vn -0.619765 0.005548 -0.784767
vn -0.619765 0.005548 -0.784768
vn -0.619765 0.005548 -0.784768
vn -1.000000 0.000002 -0.000004
vn -1.000000 0.000002 -0.000004
vn -1.000000 0.000002 -0.000004
vn -1.000000 0.000002 -0.000004
vn -0.619164 0.006440 0.785235
vn -0.619164 0.006440 0.785235
vn -0.619164 0.006440 0.785235
vn -0.619164 0.006440 0.785235
vn 0.220081 0.010175 0.975429
vn 0.220081 0.010175 0.975428
vn 0.220081 0.010175 0.975428
vn 0.220081 0.010175 0.975428
vn 0.899103 0.001925 0.437732
vn 0.899103 0.001925 0.437732
vn 0.899103 0.001925 0.437732
vn 0.899103 0.001925 0.437732
vn 0.899252 0.001771 -0.437427
vn 0.899252 0.001771 -0.437427
vn 0.899252 0.001771 -0.437427
vn 0.899252 0.001771 -0.437427
s 1
g pCylinder1
usemtl initialShadingGroup
f 1/8/1 2/9/2 9/17/3 8/16/4
s 2
f 2/9/5 3/10/6 10/18/7 9/17/8
s 3
f 3/10/9 4/11/10 11/19/11 10/18/12
s 4
f 4/11/13 5/12/14 12/20/15 11/19/16
s 5
f 5/12/17 6/13/18 13/21/19 12/20/20
s 6
f 6/13/21 7/14/22 14/22/23 13/21/24
s 7
f 7/14/25 1/15/26 8/23/27 14/22/28
s 8
f 2/2/29 1/1/30 15/31/31
f 3/3/32 2/2/29 15/31/31
f 4/4/33 3/3/32 15/31/31
f 5/5/34 4/4/33 15/31/31
f 6/6/35 5/5/34 15/31/31
f 7/7/36 6/6/35 15/31/31
f 1/1/30 7/7/36 15/31/31
s 9
f 51/68/37 52/69/38 53/32/39
f 52/69/38 54/70/40 53/32/39
f 54/70/40 55/71/41 53/32/39
f 55/71/41 56/72/42 53/32/39
f 56/72/42 57/73/43 53/32/39
f 57/73/43 58/74/44 53/32/39
f 58/74/44 51/68/37 53/32/39
s 1
f 8/29/4 9/28/3 17/34/45 16/33/46
s 2
f 9/28/8 10/27/7 18/35/47 17/34/48
s 3
f 10/27/12 11/26/11 19/36/49 18/35/50
s 4
f 11/26/16 12/25/15 20/37/51 19/36/52
s 5
f 12/25/20 13/24/19 21/38/53 20/37/54
s 6
f 13/24/24 14/30/23 22/39/55 21/38/56
s 7
f 14/30/28 8/29/27 16/33/57 22/39/58
s off
f 16/33/59 17/34/60 24/41/61 23/40/62
f 17/34/63 18/35/64 25/42/65 24/41/66
f 18/35/67 19/36/68 26/43/69 25/42/70
f 19/36/71 20/37/72 27/44/73 26/43/74
f 20/37/75 21/38/76 28/45/77 27/44/78
s 6
f 21/38/56 22/39/55 29/46/79 28/45/80
s 7
f 22/39/58 16/33/57 23/40/81 29/46/82
s 10
f 23/40/83 24/41/84 31/48/85 30/47/86
s 11
f 24/41/87 25/42/88 32/49/89 31/48/90
s 12
f 25/42/91 26/43/92 33/50/93 32/49/94
s 13
f 26/43/95 27/44/96 34/51/97 33/50/98
s 14
f 27/44/99 28/45/100 35/52/101 34/51/102
s 15
f 28/45/103 29/46/104 36/53/105 35/52/106
s 16
f 29/46/107 23/40/108 30/47/109 36/53/110
s 10
f 30/47/86 31/48/85 38/55/111 37/54/112
s 11
f 31/48/90 32/49/89 39/56/113 38/55/114
s 12
f 32/49/94 33/50/93 40/57/115 39/56/116
s 13
f 33/50/98 34/51/97 41/58/117 40/57/118
s 14
f 34/51/102 35/52/101 42/59/119 41/58/120
s 15
f 35/52/106 36/53/105 43/60/121 42/59/122
s 16
f 36/53/110 30/47/109 37/54/123 43/60/124
s off
f 37/54/125 38/55/126 45/62/127 44/61/128
f 38/55/129 39/56/130 46/63/131 45/62/132
f 39/56/133 40/57/134 47/64/135 46/63/136
f 40/57/137 41/58/138 48/65/139 47/64/140
f 41/58/141 42/59/142 49/66/143 48/65/144
f 42/59/145 43/60/146 50/67/147 49/66/148
f 43/60/149 37/54/150 44/61/151 50/67/152
f 44/61/153 45/62/154 52/69/155 51/68/156
f 45/62/157 46/63/158 54/70/159 52/69/160
f 46/63/161 47/64/162 55/71/163 54/70/164
f 47/64/165 48/65/166 56/72/167 55/71/168
f 48/65/169 49/66/170 57/73/171 56/72/172
f 49/66/173 50/67/174 58/74/175 57/73/176
f 50/67/177 44/61/178 51/68/179 58/74/180
