# This file uses centimeters as units for non-parametric coordinates.

g default
v -1.502259 -0.033309 1.502259
v 1.502259 -0.033309 1.502259
v -1.502259 0.957145 1.502259
v 1.502259 0.957145 1.502259
v -1.502259 0.957145 -1.502259
v 1.502259 0.957145 -1.502259
v -1.502259 -0.033309 -1.502259
v 1.502259 -0.033309 -1.502259
v -1.285475 0.957145 1.285480
v 1.285475 0.957145 1.285480
v 1.285475 0.957145 -1.285473
v -1.285475 0.957145 -1.285473
v -1.936136 0.957145 0.000000
v -1.656742 0.957145 0.000006
v 1.656742 0.957145 0.000006
v 1.936135 0.957145 0.000000
v 1.936135 -0.033309 0.000000
v -1.936136 -0.033309 0.000000
v 0.000000 -0.033309 2.005536
v 0.000000 -0.033309 0.000000
v 0.000000 -0.033309 -2.005536
v 0.000000 0.957145 -2.005536
v 0.000000 0.957145 -1.716123
v 0.000000 0.957145 1.716131
v 0.000000 0.957145 2.005536
v 1.285475 6.657629 1.285480
v 1.656742 6.462855 0.000006
v 1.285475 6.674729 -1.285473
v 0.000000 6.651375 -1.716123
v -1.285475 6.554624 -1.285473
v -1.656742 6.183842 0.000006
v -1.285475 5.501954 1.285480
v 0.000000 6.867137 1.716131
v 0.762413 6.657629 0.783986
v 0.870565 6.462855 0.000006
v 0.762414 6.674729 -0.783979
v 0.000000 6.651375 -0.940197
v -0.762414 6.997952 -0.783981
v -0.870565 6.183842 0.000006
v -0.762414 5.501954 0.783986
v 0.000000 6.867137 0.940207
v 0.003734 6.441793 -0.000301
vt 0.207214 0.901628
vt 0.107480 0.901628
vt 0.207214 0.805248
vt 0.207214 0.998008
vt 0.107480 0.805248
vt 0.107480 0.998008
vt 0.212954 0.998008
vt 0.212954 0.901628
vt 0.312688 0.998008
vt 0.312688 0.901628
vt 0.312688 0.805248
vt 0.212954 0.805248
vt 0.256097 0.001992
vt 0.256097 0.556390
vt 0.173625 0.001992
vt 0.338568 0.001992
vt 0.173625 0.576003
vt 0.338568 0.577725
vt 0.599335 0.001992
vt 0.599335 0.528295
vt 0.516863 0.001992
vt 0.681806 0.459632
vt 0.516863 0.565631
vt 0.681806 0.001992
vt 0.471965 0.924855
vt 0.434629 0.842383
vt 0.516606 0.892681
vt 0.368746 0.842383
vt 0.428549 0.979850
vt 0.378768 0.979850
vt 0.400920 0.842383
vt 0.318428 0.937020
vt 0.791218 0.569292
vt 0.887598 0.601580
vt 0.791218 0.697960
vt 0.915434 0.697960
vt 0.694838 0.601580
vt 0.887598 0.794340
vt 0.667002 0.697960
vt 0.791218 0.826628
vt 0.694838 0.794340
vt 0.537159 0.599953
vt 0.537159 0.581386
vt 0.619630 0.627582
vt 0.454687 0.627582
vt 0.633539 0.613674
vt 0.440779 0.613674
vt 0.661375 0.710054
vt 0.412943 0.710054
vt 0.643450 0.710054
vt 0.430868 0.710054
vt 0.619630 0.792525
vt 0.454687 0.792525
vt 0.633539 0.806434
vt 0.440779 0.806434
vt 0.537159 0.838722
vt 0.537159 0.820154
vt 0.383496 0.609015
vt 0.407315 0.691486
vt 0.349938 0.641189
vt 0.356877 0.691486
vt 0.301024 0.581386
vt 0.349938 0.741784
vt 0.301264 0.691506
vt 0.301024 0.631166
vt 0.383496 0.773958
vt 0.301024 0.801587
vt 0.301024 0.751807
vt 0.252111 0.741784
vt 0.245172 0.691486
vt 0.218553 0.773958
vt 0.252111 0.641189
vt 0.194734 0.691486
vt 0.218553 0.609015
vt 0.189106 0.697140
vt 0.089372 0.697140
vt 0.189106 0.600760
vt 0.189106 0.793520
vt 0.089372 0.600760
vt 0.089372 0.793520
vt 0.101561 0.893561
vt 0.001827 0.893561
vt 0.101561 0.797181
vt 0.101561 0.989940
vt 0.001827 0.797181
vt 0.001827 0.989940
vt 0.427716 0.577724
vt 0.427716 0.004344
vt 0.510187 0.577724
vt 0.345244 0.014086
vt 0.510187 0.001992
vt 0.345244 0.577724
vt 0.001827 0.001992
vt 0.084299 0.001992
vt 0.001827 0.459632
vt 0.084299 0.597099
vt 0.166771 0.576003
vt 0.166771 0.001992
vn 0.317661 0.000000 0.948204
vn 0.317661 0.000000 0.948204
vn 0.317661 0.000000 0.948204
vn 0.317661 0.000000 0.948204
vn 0.317661 0.000000 0.948204
vn 0.317661 0.000000 0.948204
vn 0.317661 0.000000 -0.948204
vn 0.317661 0.000000 -0.948204
vn 0.317661 0.000000 -0.948204
vn 0.317661 0.000000 -0.948204
vn 0.317661 0.000000 -0.948204
vn 0.317661 0.000000 -0.948204
vn 0.000000 -1.000000 0.000000
vn 0.000000 -1.000000 0.000000
vn 0.000000 -1.000000 0.000000
vn 0.000000 -1.000000 0.000000
vn 0.000000 -1.000000 0.000000
vn 0.000000 -1.000000 0.000000
vn 0.960733 0.000000 -0.277475
vn 0.960733 0.000000 -0.277475
vn 0.960733 0.000000 -0.277475
vn 0.960733 0.000000 -0.277475
vn 0.960733 0.000000 -0.277475
vn 0.960733 0.000000 -0.277475
vn -0.960733 0.000000 -0.277475
vn -0.960733 0.000000 -0.277475
vn -0.960733 0.000000 -0.277475
vn -0.960733 0.000000 -0.277475
vn -0.960733 0.000000 -0.277475
vn -0.960733 0.000000 -0.277475
vn -0.000000 1.000000 -0.000001
vn -0.000000 1.000000 -0.000001
vn -0.000000 1.000000 -0.000001
vn -0.000000 1.000000 -0.000001
vn -0.000000 1.000000 -0.000001
vn -0.000000 1.000000 -0.000001
vn -0.000001 1.000000 0.000000
vn -0.000001 1.000000 0.000000
vn -0.000001 1.000000 0.000000
vn -0.000001 1.000000 0.000000
vn -0.000001 1.000000 0.000000
vn -0.000001 1.000000 0.000000
vn -0.000000 1.000000 0.000001
vn -0.000000 1.000000 0.000001
vn -0.000000 1.000000 0.000001
vn -0.000000 1.000000 0.000001
vn -0.000000 1.000000 0.000001
vn -0.000000 1.000000 0.000001
vn 0.000001 1.000000 0.000000
vn 0.000001 1.000000 0.000000
vn 0.000001 1.000000 0.000000
vn 0.000001 1.000000 0.000000
vn 0.000001 1.000000 0.000000
vn 0.000001 1.000000 0.000000
vn 0.000001 1.000000 -0.000000
vn 0.000001 1.000000 -0.000000
vn 0.000001 1.000000 -0.000000
vn 0.000001 1.000000 -0.000000
vn 0.000001 1.000000 -0.000000
vn 0.000001 1.000000 -0.000000
vn -0.000001 1.000000 -0.000000
vn -0.000001 1.000000 -0.000000
vn -0.000001 1.000000 -0.000000
vn -0.000001 1.000000 -0.000000
vn -0.000001 1.000000 -0.000000
vn -0.000001 1.000000 -0.000000
vn 0.960733 0.000000 0.277475
vn 0.960733 0.000000 0.277475
vn 0.960733 0.000000 0.277475
vn 0.960733 0.000000 0.277475
vn 0.960733 0.000000 0.277475
vn 0.960733 0.000000 0.277475
vn 0.000000 -1.000000 0.000000
vn 0.000000 -1.000000 0.000000
vn 0.000000 -1.000000 0.000000
vn 0.000000 -1.000000 -0.000000
vn 0.000000 -1.000000 -0.000000
vn 0.000000 -1.000000 -0.000000
vn -0.960733 0.000000 0.277475
vn -0.960733 0.000000 0.277475
vn -0.960733 0.000000 0.277475
vn -0.960733 0.000000 0.277475
vn -0.960733 0.000000 0.277475
vn -0.960733 0.000000 0.277475
vn 0.000000 -1.000000 0.000000
vn 0.000000 -1.000000 0.000000
vn 0.000000 -1.000000 0.000000
vn 0.000000 -1.000000 0.000000
vn 0.000000 -1.000000 0.000000
vn 0.000000 -1.000000 0.000000
vn 0.000000 -1.000000 0.000000
vn 0.000000 -1.000000 0.000000
vn 0.000000 -1.000000 0.000000
vn 0.000000 -1.000000 0.000000
vn 0.000000 -1.000000 0.000000
vn 0.000000 -1.000000 0.000000
vn -0.317661 0.000000 -0.948204
vn -0.317661 0.000000 -0.948204
vn -0.317661 0.000000 -0.948204
vn -0.317661 0.000000 -0.948204
vn -0.317661 0.000000 -0.948204
vn -0.317661 0.000000 -0.948204
vn 0.000000 1.000000 0.000001
vn 0.000000 1.000000 0.000001
vn 0.000000 1.000000 0.000001
vn 0.000000 1.000000 0.000001
vn 0.000000 1.000000 0.000001
vn 0.000000 1.000000 0.000001
vn 0.000000 1.000000 -0.000001
vn 0.000000 1.000000 -0.000001
vn 0.000000 1.000000 -0.000001
vn 0.000000 1.000000 -0.000001
vn 0.000000 1.000000 -0.000001
vn 0.000000 1.000000 -0.000001
vn -0.317661 0.000000 0.948204
vn -0.317661 0.000000 0.948204
vn -0.317661 0.000000 0.948204
vn -0.317661 0.000000 0.948204
vn -0.317661 0.000000 0.948204
vn -0.317661 0.000000 0.948204
vn 0.960733 0.000000 0.277476
vn 0.960733 0.000000 0.277476
vn 0.960733 0.000000 0.277476
vn 0.960733 0.000000 0.277476
vn 0.960733 0.000000 0.277476
vn 0.960733 0.000000 0.277476
vn 0.960733 0.000000 -0.277475
vn 0.960733 0.000000 -0.277475
vn 0.960733 0.000000 -0.277475
vn 0.960733 0.000000 -0.277475
vn 0.960733 0.000000 -0.277475
vn 0.960733 0.000000 -0.277475
vn 0.317661 0.000000 -0.948204
vn 0.317661 0.000000 -0.948204
vn 0.317661 0.000000 -0.948204
vn 0.317661 0.000000 -0.948204
vn 0.317661 0.000000 -0.948204
vn 0.317661 0.000000 -0.948204
vn -0.317661 0.000000 -0.948204
vn -0.317661 0.000000 -0.948204
vn -0.317661 0.000000 -0.948204
vn -0.317661 0.000000 -0.948204
vn -0.317661 0.000000 -0.948204
vn -0.317661 0.000000 -0.948204
vn -0.960733 0.000000 -0.277475
vn -0.960733 0.000000 -0.277475
vn -0.960733 0.000000 -0.277475
vn -0.960733 0.000000 -0.277475
vn -0.960733 0.000000 -0.277475
vn -0.960733 0.000000 -0.277475
vn -0.960733 0.000000 0.277475
vn -0.960733 0.000000 0.277475
vn -0.960733 0.000000 0.277475
vn -0.960733 0.000000 0.277475
vn -0.960733 0.000000 0.277475
vn -0.960733 0.000000 0.277475
vn -0.317661 0.000000 0.948204
vn -0.317661 0.000000 0.948204
vn -0.317661 0.000000 0.948204
vn -0.317661 0.000000 0.948204
vn -0.317661 0.000000 0.948204
vn -0.317661 0.000000 0.948204
vn 0.317661 0.000000 0.948204
vn 0.317661 0.000000 0.948204
vn 0.317661 0.000000 0.948204
vn 0.317661 0.000000 0.948204
vn 0.317661 0.000000 0.948204
vn 0.317661 0.000000 0.948204
vn 0.112261 0.986756 -0.117089
vn 0.112261 0.986756 -0.117089
vn 0.112261 0.986756 -0.117089
vn 0.000000 0.970497 -0.241112
vn 0.000000 0.970497 -0.241112
vn 0.000000 0.970497 -0.241112
vn 0.121823 0.984385 0.127062
vn 0.121823 0.984385 0.127062
vn 0.121823 0.984385 0.127062
vn 0.000000 0.965368 0.260893
vn 0.000000 0.965368 0.260893
vn 0.000000 0.965368 0.260893
vn -0.013461 0.999811 -0.014039
vn -0.013461 0.999811 -0.014039
vn -0.013461 0.999811 -0.014039
vn -0.030617 0.999531 0.000000
vn -0.030617 0.999531 0.000000
vn -0.030617 0.999531 0.000000
vn -0.230004 0.835632 -0.498816
vn -0.230004 0.835632 -0.498816
vn -0.230004 0.835632 -0.498816
vn 0.413828 0.910355 0.000000
vn 0.413828 0.910355 0.000000
vn 0.413828 0.910355 0.000000
vn 0.000000 0.960830 0.277140
vn 0.000000 0.960829 0.277140
vn 0.000000 0.960830 0.277140
vn -0.783904 0.481554 0.391918
vn -0.783904 0.481554 0.391918
vn -0.783904 0.481554 0.391918
vn 0.345207 0.866714 0.360053
vn 0.345207 0.866714 0.360053
vn 0.345207 0.866714 0.360053
vn 0.000000 0.754526 0.656270
vn 0.000000 0.754526 0.656270
vn 0.000000 0.754526 0.656270
vn -0.519708 0.660359 -0.542060
vn -0.519708 0.660359 -0.542060
vn -0.519708 0.660359 -0.542060
vn -0.873075 0.487586 0.000000
vn -0.873075 0.487586 0.000000
vn -0.873075 0.487586 0.000000
vn 0.118980 0.985111 -0.124097
vn 0.118980 0.985111 -0.124097
vn 0.118980 0.985111 -0.124097
vn 0.264973 0.964256 0.000000
vn 0.264973 0.964256 0.000000
vn 0.264973 0.964256 0.000000
vn -0.023469 0.969467 -0.244094
vn -0.023469 0.969467 -0.244094
vn -0.023469 0.969468 -0.244094
vn -0.023523 0.964278 0.263845
vn -0.023523 0.964278 0.263845
vn -0.023523 0.964278 0.263845
vn -0.074341 0.973266 0.217318
vn -0.074341 0.973266 0.217318
vn -0.074341 0.973266 0.217318
vn 0.438626 0.877497 0.193925
vn 0.438626 0.877497 0.193925
vn 0.438626 0.877497 0.193925
vn -0.204212 0.692978 0.691433
vn -0.204212 0.692978 0.691433
vn -0.204212 0.692978 0.691433
vn -0.212930 0.722488 0.657778
vn -0.212930 0.722488 0.657778
vn -0.212930 0.722488 0.657778
vn -0.838999 0.494530 -0.226981
vn -0.838999 0.494530 -0.226981
vn -0.838999 0.494530 -0.226981
vn 0.163881 0.899079 -0.405956
vn 0.163881 0.899079 -0.405956
vn 0.163881 0.899079 -0.405956
s off
g pCube8
f 25/75/1 19/76/2 4/77/3
f 4/77/4 19/76/5 2/79/6
f 21/81/7 22/82/8 8/83/9
f 8/83/10 22/82/11 6/85/12
f 21/33/13 8/34/14 20/35/15
f 20/35/16 8/34/17 17/36/18
f 16/1/19 17/2/20 6/3/21
f 6/3/22 17/2/23 8/5/24
f 7/7/25 18/8/26 5/9/27
f 5/9/28 18/8/29 13/10/30
f 24/42/31 25/43/32 10/44/33
f 10/44/34 25/43/35 4/46/36
f 15/50/37 16/48/38 11/52/39
f 11/52/40 16/48/41 6/54/42
f 6/54/43 22/56/44 11/52/45
f 11/52/46 22/56/47 23/57/48
f 5/55/49 13/49/50 12/53/51
f 12/53/52 13/49/53 14/51/54
f 14/51/55 13/49/56 9/45/57
f 9/45/58 13/49/59 3/47/60
f 4/46/61 16/48/62 10/44/63
f 10/44/64 16/48/65 15/50/66
f 2/6/67 17/2/68 4/4/69
f 4/4/70 17/2/71 16/1/72
f 19/40/73 20/35/74 2/38/75
f 2/38/76 20/35/77 17/36/78
f 13/10/79 18/8/80 3/11/81
f 3/11/82 18/8/83 1/12/84
f 18/39/85 20/35/86 1/41/87
f 1/41/88 20/35/89 19/40/90
f 21/33/91 20/35/92 7/37/93
f 7/37/94 20/35/95 18/39/96
f 5/86/97 22/82/98 7/84/99
f 7/84/100 22/82/101 21/81/102
f 23/57/103 22/56/104 12/53/105
f 12/53/106 22/56/107 5/55/108
f 3/47/109 25/43/110 9/45/111
f 9/45/112 25/43/113 24/42/114
f 1/80/115 19/76/116 3/78/117
f 3/78/118 19/76/119 25/75/120
f 15/13/121 27/14/122 10/15/123
f 10/15/124 27/14/125 26/17/126
f 28/18/127 27/14/128 11/16/129
f 11/16/130 27/14/131 15/13/132
f 23/87/133 29/88/134 11/89/135
f 11/89/136 29/88/137 28/91/138
f 29/88/139 23/87/140 30/90/141
f 30/90/142 23/87/143 12/92/144
f 14/19/145 31/20/146 12/21/147
f 12/21/148 31/20/149 30/23/150
f 31/20/151 14/19/152 32/22/153
f 32/22/154 14/19/155 9/24/156
f 9/93/157 24/94/158 32/95/159
f 32/95/160 24/94/161 33/96/162
f 33/96/163 24/94/164 26/97/165
f 26/97/166 24/94/167 10/98/168
f 26/58/169 27/59/170 34/60/171
f 34/60/172 27/59/173 35/61/174
f 28/66/175 36/63/176 27/59/177
f 27/59/178 36/63/179 35/61/180
f 28/66/181 29/67/182 36/63/183
f 36/63/184 29/67/185 37/68/186
f 30/71/187 38/69/188 29/67/189
f 29/67/190 38/69/191 37/68/192
f 31/73/193 39/70/194 30/71/195
f 30/25/196 39/26/197 38/27/198
f 32/74/199 40/72/200 31/73/201
f 31/73/202 40/72/203 39/70/204
f 32/31/205 33/29/206 40/28/207
f 40/28/208 33/29/209 41/30/210
f 26/58/211 34/60/212 33/62/213
f 33/62/214 34/60/215 41/65/216
f 34/60/217 35/61/218 42/64/219
f 35/61/220 36/63/221 42/64/222
f 36/63/223 37/68/224 42/64/225
f 37/68/226 38/69/227 42/64/228
f 38/69/229 39/70/230 42/64/231
f 39/70/232 40/72/233 42/64/234
f 40/28/235 41/30/236 42/32/237
f 41/65/238 34/60/239 42/64/240
