# This file uses centimeters as units for non-parametric coordinates.

g default
v -1.502259 -0.033309 1.502259
v 1.502259 -0.033309 1.502259
v -1.502259 0.957145 1.502259
v 1.502259 0.957145 1.502259
v -1.502259 0.957145 -1.502259
v 1.502259 0.957145 -1.502259
v -1.502259 -0.033309 -1.502259
v 1.502259 -0.033309 -1.502259
v -1.285476 0.957145 1.285479
v 1.285476 0.957145 1.285479
v 1.285476 0.957145 -1.285473
v -1.285476 0.957145 -1.285473
v -1.285476 10.504480 1.285479
v 1.285476 10.504480 1.285479
v 1.285476 10.504480 -1.285473
v -1.285476 10.504480 -1.285473
v -1.436314 10.504480 1.436317
v 1.436314 10.504480 1.436317
v 1.436314 10.504480 -1.436311
v -1.436314 10.504480 -1.436311
v -1.436314 11.265671 1.436317
v 1.436314 11.265671 1.436317
v 1.436314 11.265671 -1.436311
v -1.436314 11.265671 -1.436311
v -1.936136 0.957145 0.000000
v -1.656742 0.957145 0.000004
v -1.656742 10.504480 0.000004
v -1.851145 10.504480 0.000004
v -1.851145 11.265671 0.000004
v 1.851144 11.265671 0.000004
v 1.851144 10.504480 0.000004
v 1.656742 10.504480 0.000004
v 1.656742 0.957145 0.000004
v 1.936136 0.957145 0.000000
v 1.936136 -0.033309 0.000000
v -1.936136 -0.033309 0.000000
v -0.000000 -0.033309 2.005536
v -0.000000 -0.033309 0.000000
v -0.000000 -0.033309 -2.005536
v -0.000000 0.957145 -2.005536
v -0.000000 0.957145 -1.716124
v -0.000000 10.504480 -1.716124
v -0.000000 10.504480 -1.917494
v -0.000000 11.265671 -1.917494
v -0.000000 11.265671 0.000004
v -0.000000 11.265671 1.917502
v -0.000000 10.504480 1.917502
v -0.000000 10.504480 1.716131
v -0.000000 0.957145 1.716131
v -0.000000 0.957145 2.005536
vt 0.442618 0.838268
vt 0.364127 0.838268
vt 0.364127 0.762417
vt 0.442618 0.762417
vt 0.364127 0.914120
vt 0.442618 0.914120
vt 0.279501 0.914119
vt 0.279501 0.838268
vt 0.357991 0.838268
vt 0.357991 0.914119
vt 0.279501 0.762417
vt 0.357991 0.762417
vt 0.203519 0.758426
vt 0.203519 0.001825
vt 0.268425 0.001825
vt 0.268425 0.758426
vt 0.138614 0.001825
vt 0.138614 0.758426
vt 0.411467 0.001825
vt 0.476372 0.001825
vt 0.476372 0.758426
vt 0.411467 0.758426
vt 0.541278 0.001825
vt 0.541278 0.758426
vt 0.206908 0.834939
vt 0.146585 0.834939
vt 0.146585 0.762417
vt 0.206908 0.762417
vt 0.146585 0.907460
vt 0.206908 0.907460
vt 0.013670 0.907460
vt 0.013670 0.834939
vt 0.073992 0.834939
vt 0.073992 0.907460
vt 0.013670 0.762417
vt 0.073992 0.762417
vt 0.904541 0.401975
vt 0.904541 0.305158
vt 0.998008 0.305158
vt 0.977063 0.377680
vt 0.811074 0.305158
vt 0.832020 0.377680
vt 0.904541 0.208341
vt 0.977063 0.232637
vt 0.832020 0.232637
vt 0.645652 0.103087
vt 0.645652 0.001825
vt 0.721503 0.027236
vt 0.743410 0.103087
vt 0.569801 0.027236
vt 0.547894 0.103087
vt 0.645652 0.204350
vt 0.721503 0.178938
vt 0.569801 0.178938
vt 0.848343 0.016437
vt 0.848343 0.001825
vt 0.924194 0.027236
vt 0.913249 0.038181
vt 0.772492 0.027236
vt 0.783437 0.038181
vt 0.946101 0.103087
vt 0.931994 0.103087
vt 0.764692 0.103087
vt 0.750585 0.103087
vt 0.924194 0.178938
vt 0.913249 0.167993
vt 0.772492 0.178938
vt 0.783437 0.167993
vt 0.848343 0.204349
vt 0.848343 0.189737
vt 0.711472 0.401975
vt 0.711472 0.391808
vt 0.776377 0.370064
vt 0.783993 0.377680
vt 0.646566 0.370064
vt 0.638950 0.377680
vt 0.795123 0.305158
vt 0.804939 0.305158
vt 0.618005 0.305158
vt 0.627821 0.305158
vt 0.776377 0.240253
vt 0.783993 0.232637
vt 0.646566 0.240253
vt 0.638950 0.232637
vt 0.711472 0.218509
vt 0.711472 0.208341
vt 0.611870 0.838268
vt 0.533379 0.838268
vt 0.533379 0.762417
vt 0.611870 0.762417
vt 0.533379 0.914120
vt 0.611870 0.914120
vt 0.527244 0.838268
vt 0.448753 0.838268
vt 0.448753 0.762417
vt 0.527244 0.762417
vt 0.448753 0.914119
vt 0.527244 0.914119
vt 0.066898 0.758426
vt 0.066898 0.001825
vt 0.131803 0.001825
vt 0.131803 0.758426
vt 0.001992 0.001825
vt 0.001992 0.758426
vt 0.404851 0.758426
vt 0.339946 0.758426
vt 0.339946 0.001825
vt 0.404851 0.001825
vt 0.275040 0.758426
vt 0.275040 0.001825
vt 0.273365 0.834939
vt 0.213043 0.834939
vt 0.213043 0.762417
vt 0.273365 0.762417
vt 0.213043 0.907460
vt 0.273365 0.907460
vt 0.140450 0.762417
vt 0.140450 0.834939
vt 0.080127 0.834939
vt 0.080127 0.762417
vt 0.140450 0.907460
vt 0.080127 0.907460
vn 0.317661 0.000000 0.948204
vn 0.317661 0.000000 0.948204
vn 0.317661 0.000000 0.948204
vn 0.317661 0.000000 0.948204
vn 0.000000 1.000000 0.000001
vn 0.000000 1.000000 0.000001
vn 0.000000 1.000000 0.000001
vn 0.000000 1.000000 0.000001
vn 0.317661 0.000000 -0.948204
vn 0.317661 0.000000 -0.948204
vn 0.317661 0.000000 -0.948204
vn 0.317661 0.000000 -0.948204
vn 0.000000 -1.000000 0.000000
vn 0.000000 -1.000000 0.000000
vn 0.000000 -1.000000 0.000000
vn 0.000000 -1.000000 0.000000
vn 0.960733 0.000000 -0.277475
vn 0.960733 0.000000 -0.277475
vn 0.960733 0.000000 -0.277475
vn 0.960733 0.000000 -0.277475
vn -0.960733 0.000000 -0.277475
vn -0.960733 0.000000 -0.277475
vn -0.960733 0.000000 -0.277475
vn -0.960733 0.000000 -0.277475
vn -0.000000 1.000000 -0.000001
vn -0.000000 1.000000 -0.000001
vn -0.000000 1.000000 -0.000001
vn -0.000000 1.000000 -0.000001
vn -0.000001 1.000000 0.000000
vn -0.000001 1.000000 0.000000
vn -0.000001 1.000000 0.000000
vn -0.000001 1.000000 0.000000
vn -0.000000 1.000000 0.000001
vn -0.000000 1.000000 0.000001
vn -0.000000 1.000000 0.000001
vn -0.000000 1.000000 0.000001
vn 0.000001 1.000000 0.000000
vn 0.000001 1.000000 0.000000
vn 0.000001 1.000000 0.000000
vn 0.000001 1.000000 0.000000
vn 0.317662 0.000000 0.948204
vn 0.317662 0.000000 0.948204
vn 0.317662 0.000000 0.948204
vn 0.317662 0.000000 0.948204
vn 0.960733 0.000000 -0.277475
vn 0.960733 0.000000 -0.277475
vn 0.960733 0.000000 -0.277475
vn 0.960733 0.000000 -0.277475
vn 0.317660 0.000000 -0.948205
vn 0.317660 0.000000 -0.948205
vn 0.317660 0.000000 -0.948205
vn 0.317660 0.000000 -0.948205
vn -0.960733 0.000000 -0.277475
vn -0.960733 0.000000 -0.277475
vn -0.960733 0.000000 -0.277475
vn -0.960733 0.000000 -0.277475
vn 0.000000 -1.000000 0.000005
vn 0.000000 -1.000000 0.000005
vn 0.000000 -1.000000 0.000005
vn 0.000000 -1.000000 0.000005
vn 0.000000 -1.000000 -0.000001
vn 0.000000 -1.000000 -0.000001
vn 0.000000 -1.000000 -0.000001
vn 0.000000 -1.000000 -0.000001
vn 0.000000 -1.000000 -0.000003
vn 0.000000 -1.000000 -0.000003
vn 0.000000 -1.000000 -0.000003
vn 0.000000 -1.000000 -0.000003
vn 0.000000 -1.000000 0.000001
vn 0.000000 -1.000000 0.000001
vn 0.000000 -1.000000 0.000001
vn 0.000000 -1.000000 0.000001
vn 0.317661 0.000000 0.948204
vn 0.317661 0.000000 0.948204
vn 0.317661 0.000000 0.948204
vn 0.317661 0.000000 0.948204
vn 0.960733 0.000000 -0.277475
vn 0.960733 0.000000 -0.277475
vn 0.960733 0.000000 -0.277475
vn 0.960733 0.000000 -0.277475
vn 0.317660 0.000000 -0.948205
vn 0.317660 0.000000 -0.948205
vn 0.317660 0.000000 -0.948205
vn 0.317660 0.000000 -0.948205
vn -0.960733 0.000000 -0.277475
vn -0.960733 0.000000 -0.277475
vn -0.960733 0.000000 -0.277475
vn -0.960733 0.000000 -0.277475
vn 0.000001 1.000000 -0.000000
vn 0.000001 1.000000 -0.000000
vn 0.000001 1.000000 -0.000000
vn 0.000001 1.000000 -0.000000
vn -0.960733 0.000000 0.277475
vn -0.960733 0.000000 0.277475
vn -0.960733 0.000000 0.277475
vn -0.960733 0.000000 0.277475
vn 0.000000 -1.000000 -0.000001
vn 0.000000 -1.000000 -0.000001
vn 0.000000 -1.000000 -0.000001
vn 0.000000 -1.000000 -0.000001
vn -0.960733 0.000000 0.277475
vn -0.960733 0.000000 0.277475
vn -0.960733 0.000000 0.277475
vn -0.960733 0.000000 0.277475
vn 0.000000 1.000000 -0.000001
vn 0.000000 1.000000 -0.000001
vn 0.000000 1.000000 -0.000001
vn 0.000000 1.000000 -0.000001
vn 0.960733 0.000000 0.277475
vn 0.960733 0.000000 0.277475
vn 0.960733 0.000000 0.277475
vn 0.960733 0.000000 0.277475
vn 0.000000 -1.000000 0.000001
vn 0.000000 -1.000000 0.000001
vn 0.000000 -1.000000 0.000001
vn 0.000000 -1.000000 0.000001
vn 0.960733 0.000000 0.277475
vn 0.960733 0.000000 0.277475
vn 0.960733 0.000000 0.277475
vn 0.960733 0.000000 0.277475
vn -0.000001 1.000000 -0.000000
vn -0.000001 1.000000 -0.000000
vn -0.000001 1.000000 -0.000000
vn -0.000001 1.000000 -0.000000
vn 0.960733 0.000000 0.277475
vn 0.960733 0.000000 0.277475
vn 0.960733 0.000000 0.277475
vn 0.960733 0.000000 0.277475
vn 0.000000 -1.000000 0.000000
vn 0.000000 -1.000000 0.000000
vn 0.000000 -1.000000 0.000000
vn 0.000000 -1.000000 0.000000
vn -0.960733 0.000000 0.277475
vn -0.960733 0.000000 0.277475
vn -0.960733 0.000000 0.277475
vn -0.960733 0.000000 0.277475
vn 0.000000 -1.000000 0.000000
vn 0.000000 -1.000000 0.000000
vn 0.000000 -1.000000 0.000000
vn 0.000000 -1.000000 0.000000
vn 0.000000 -1.000000 -0.000000
vn 0.000000 -1.000000 -0.000000
vn 0.000000 -1.000000 -0.000000
vn 0.000000 -1.000000 -0.000000
vn -0.317661 0.000000 -0.948204
vn -0.317661 0.000000 -0.948204
vn -0.317661 0.000000 -0.948204
vn -0.317661 0.000000 -0.948204
vn 0.000000 1.000000 0.000001
vn 0.000000 1.000000 0.000001
vn 0.000000 1.000000 0.000001
vn 0.000000 1.000000 0.000001
vn -0.317660 0.000000 -0.948205
vn -0.317660 0.000000 -0.948205
vn -0.317660 0.000000 -0.948205
vn -0.317660 0.000000 -0.948205
vn 0.000000 -1.000000 0.000000
vn 0.000000 -1.000000 0.000000
vn 0.000000 -1.000000 0.000000
vn 0.000000 -1.000000 0.000000
vn -0.317660 0.000000 -0.948205
vn -0.317660 0.000000 -0.948205
vn -0.317660 0.000000 -0.948205
vn -0.317660 0.000000 -0.948205
vn 0.000000 1.000000 -0.000000
vn 0.000000 1.000000 -0.000000
vn 0.000000 1.000000 -0.000000
vn 0.000000 1.000000 -0.000000
vn 0.000000 1.000000 0.000000
vn 0.000000 1.000000 0.000000
vn 0.000000 1.000000 0.000000
vn 0.000000 1.000000 0.000000
vn -0.317661 0.000000 0.948204
vn -0.317661 0.000000 0.948204
vn -0.317661 0.000000 0.948204
vn -0.317661 0.000000 0.948204
vn 0.000000 -1.000000 -0.000001
vn 0.000000 -1.000000 -0.000001
vn 0.000000 -1.000000 -0.000001
vn 0.000000 -1.000000 -0.000001
vn -0.317662 0.000000 0.948204
vn -0.317662 0.000000 0.948204
vn -0.317662 0.000000 0.948204
vn -0.317662 0.000000 0.948204
vn 0.000000 1.000000 -0.000001
vn 0.000000 1.000000 -0.000001
vn 0.000000 1.000000 -0.000001
vn 0.000000 1.000000 -0.000001
vn -0.317661 0.000000 0.948204
vn -0.317661 0.000000 0.948204
vn -0.317661 0.000000 0.948204
vn -0.317661 0.000000 0.948204
s off
g pCube7
f 50/87/1 37/88/2 2/89/3 4/90/4
f 44/37/5 45/38/6 30/39/7 23/40/8
f 39/93/9 40/94/10 6/95/11 8/96/12
f 38/46/13 39/47/14 8/48/15 35/49/16
f 34/1/17 35/2/18 8/3/19 6/4/20
f 7/7/21 36/8/22 25/9/23 5/10/24
f 49/55/25 50/56/26 4/57/27 10/58/28
f 33/62/29 34/61/30 6/65/31 11/66/32
f 6/65/33 40/69/34 41/70/35 11/66/36
f 5/67/37 25/64/38 26/63/39 12/68/40
f 48/99/41 49/100/42 10/101/43 14/102/44
f 32/13/45 33/14/46 11/15/47 15/16/48
f 11/105/49 41/106/50 42/107/51 15/108/52
f 12/19/53 26/20/54 27/21/55 16/22/56
f 47/71/57 48/72/58 14/73/59 18/74/60
f 31/78/61 32/77/62 15/81/63 19/82/64
f 15/81/65 42/85/66 43/86/67 19/82/68
f 16/83/69 27/80/70 28/79/71 20/84/72
f 46/111/73 47/112/74 18/113/75 22/114/76
f 30/25/77 31/26/78 19/27/79 23/28/80
f 19/117/81 43/118/82 44/119/83 23/120/84
f 20/31/85 28/32/86 29/33/87 24/34/88
f 26/63/89 25/64/90 3/59/91 9/60/92
f 27/21/93 26/20/94 9/23/95 13/24/96
f 28/79/97 27/80/98 13/75/99 17/76/100
f 29/33/101 28/32/102 17/35/103 21/36/104
f 45/38/105 46/43/106 22/44/107 30/39/108
f 18/29/109 31/26/110 30/25/111 22/30/112
f 14/73/113 32/77/114 31/78/115 18/74/116
f 10/17/117 33/14/118 32/13/119 14/18/120
f 4/57/121 34/61/122 33/62/123 10/58/124
f 2/5/125 35/2/126 34/1/127 4/6/128
f 37/52/129 38/46/130 35/49/131 2/53/132
f 25/9/133 36/8/134 1/11/135 3/12/136
f 36/51/137 38/46/138 37/52/139 1/54/140
f 7/50/141 39/47/142 38/46/143 36/51/144
f 5/97/145 40/94/146 39/93/147 7/98/148
f 41/70/149 40/69/150 5/67/151 12/68/152
f 42/107/153 41/106/154 12/109/155 16/110/156
f 43/86/157 42/85/158 16/83/159 20/84/160
f 44/119/161 43/118/162 20/121/163 24/122/164
f 29/41/165 45/38/166 44/37/167 24/42/168
f 21/45/169 46/43/170 45/38/171 29/41/172
f 17/115/173 47/112/174 46/111/175 21/116/176
f 13/75/177 48/72/178 47/71/179 17/76/180
f 9/103/181 49/100/182 48/99/183 13/104/184
f 3/59/185 50/56/186 49/55/187 9/60/188
f 1/91/189 37/88/190 50/87/191 3/92/192
