# This file uses centimeters as units for non-parametric coordinates.

g default
v -1.502259 -0.033309 1.502259
v 1.502259 -0.033309 1.502259
v -1.502259 0.957145 1.502259
v 1.502259 0.957145 1.502259
v -1.502259 0.957145 -1.502259
v 1.502259 0.957145 -1.502259
v -1.502259 -0.033309 -1.502259
v 1.502259 -0.033309 -1.502259
v -1.285476 0.957145 1.285476
v 1.285476 0.957145 1.285476
v 1.285476 0.957145 -1.285476
v -1.285476 0.957145 -1.285476
v -1.285476 2.249041 1.285476
v 1.285476 2.249041 1.285476
v 1.285476 2.249041 -1.285476
v -1.285476 2.249041 -1.285476
v -1.436314 2.249041 1.436314
v 1.436314 2.249041 1.436314
v 1.436314 2.249041 -1.436314
v -1.436314 2.249041 -1.436314
v -1.436314 3.010231 1.436314
v 1.436314 3.010231 1.436314
v 1.436314 3.010231 -1.436314
v -1.436314 3.010231 -1.436314
vt 0.561486 0.267381
vt 0.561486 0.001992
vt 0.698799 0.001992
vt 0.698799 0.267381
vt 0.705401 0.267381
vt 0.705401 0.001992
vt 0.842713 0.001992
vt 0.842713 0.267381
vt 0.521910 0.767231
vt 0.521910 0.540139
vt 0.701013 0.540139
vt 0.701013 0.767231
vt 0.742083 0.998008
vt 0.742083 0.770916
vt 0.921186 0.770916
vt 0.921186 0.998008
vt 0.001839 0.782229
vt 0.001839 0.528489
vt 0.107367 0.528489
vt 0.107367 0.782229
vt 0.225086 0.782229
vt 0.225086 0.528489
vt 0.330614 0.528489
vt 0.330614 0.782229
vt 0.396395 0.524805
vt 0.396395 0.271066
vt 0.650134 0.271066
vt 0.650134 0.524805
vt 0.289848 0.267381
vt 0.289848 0.001992
vt 0.555237 0.001992
vt 0.555237 0.267381
vt 0.655797 0.536455
vt 0.655797 0.271066
vt 0.674945 0.290214
vt 0.674945 0.517306
vt 0.921186 0.271066
vt 0.902038 0.290214
vt 0.921186 0.536455
vt 0.902038 0.517306
vt 0.377408 0.511482
vt 0.377408 0.284389
vt 0.390732 0.271066
vt 0.390732 0.524805
vt 0.150316 0.284389
vt 0.136992 0.271066
vt 0.150316 0.511482
vt 0.136992 0.524805
vt 0.001839 0.267381
vt 0.001839 0.001992
vt 0.139151 0.001992
vt 0.139151 0.267381
vt 0.145933 0.267381
vt 0.145933 0.001992
vt 0.283245 0.001992
vt 0.283245 0.267381
vt 0.336620 0.755582
vt 0.336620 0.528489
vt 0.515723 0.528489
vt 0.515723 0.755582
vt 0.886303 0.540139
vt 0.886303 0.767231
vt 0.707200 0.767231
vt 0.707200 0.540139
vt 0.025801 0.524805
vt 0.025801 0.271066
vt 0.131329 0.271066
vt 0.131329 0.524805
vt 0.219081 0.528489
vt 0.219081 0.782229
vt 0.113552 0.782229
vt 0.113552 0.528489
vn 0.000000 0.000000 1.000000
vn 0.000000 0.000000 1.000000
vn 0.000000 0.000000 1.000000
vn 0.000000 0.000000 1.000000
vn 0.000000 1.000000 0.000000
vn 0.000000 1.000000 0.000000
vn 0.000000 1.000000 0.000000
vn 0.000000 1.000000 0.000000
vn 0.000000 0.000000 -1.000000
vn 0.000000 0.000000 -1.000000
vn 0.000000 0.000000 -1.000000
vn 0.000000 0.000000 -1.000000
vn 0.000000 -1.000000 0.000000
vn 0.000000 -1.000000 0.000000
vn 0.000000 -1.000000 0.000000
vn 0.000000 -1.000000 0.000000
vn 1.000000 0.000000 0.000000
vn 1.000000 0.000000 0.000000
vn 1.000000 0.000000 0.000000
vn 1.000000 0.000000 0.000000
vn -1.000000 0.000000 0.000000
vn -1.000000 0.000000 0.000000
vn -1.000000 0.000000 0.000000
vn -1.000000 0.000000 0.000000
vn 0.000000 1.000000 0.000000
vn 0.000000 1.000000 0.000000
vn 0.000000 1.000000 0.000000
vn 0.000000 1.000000 0.000000
vn 0.000000 1.000000 0.000000
vn 0.000000 1.000000 0.000000
vn 0.000000 1.000000 0.000000
vn 0.000000 1.000000 0.000000
vn 0.000000 1.000000 0.000000
vn 0.000000 1.000000 0.000000
vn 0.000000 1.000000 0.000000
vn 0.000000 1.000000 0.000000
vn 0.000000 1.000000 0.000000
vn 0.000000 1.000000 0.000000
vn 0.000000 1.000000 0.000000
vn 0.000000 1.000000 0.000000
vn 0.000000 0.000000 1.000000
vn 0.000000 0.000000 1.000000
vn 0.000000 0.000000 1.000000
vn 0.000000 0.000000 1.000000
vn 1.000000 0.000000 0.000000
vn 1.000000 0.000000 0.000000
vn 1.000000 0.000000 0.000000
vn 1.000000 0.000000 0.000000
vn 0.000000 0.000000 -1.000000
vn 0.000000 0.000000 -1.000000
vn 0.000000 0.000000 -1.000000
vn 0.000000 0.000000 -1.000000
vn -1.000000 0.000000 0.000000
vn -1.000000 0.000000 0.000000
vn -1.000000 0.000000 0.000000
vn -1.000000 0.000000 0.000000
vn 0.000000 -1.000000 0.000001
vn 0.000000 -1.000000 0.000001
vn 0.000000 -1.000000 0.000001
vn 0.000000 -1.000000 0.000001
vn 0.000000 -1.000000 0.000000
vn 0.000000 -1.000000 0.000000
vn 0.000000 -1.000000 0.000000
vn 0.000000 -1.000000 0.000000
vn 0.000000 -1.000000 -0.000001
vn 0.000000 -1.000000 -0.000001
vn 0.000000 -1.000000 -0.000001
vn 0.000000 -1.000000 -0.000001
vn 0.000000 -1.000000 0.000000
vn 0.000000 -1.000000 0.000000
vn 0.000000 -1.000000 0.000000
vn 0.000000 -1.000000 0.000000
vn 0.000000 0.000000 1.000000
vn 0.000000 0.000000 1.000000
vn 0.000000 0.000000 1.000000
vn 0.000000 0.000000 1.000000
vn 1.000000 0.000000 0.000000
vn 1.000000 0.000000 0.000000
vn 1.000000 0.000000 0.000000
vn 1.000000 0.000000 0.000000
vn 0.000000 0.000000 -1.000000
vn 0.000000 0.000000 -1.000000
vn 0.000000 0.000000 -1.000000
vn 0.000000 0.000000 -1.000000
vn -1.000000 0.000000 0.000000
vn -1.000000 0.000000 0.000000
vn -1.000000 0.000000 0.000000
vn -1.000000 0.000000 0.000000
s off
g pCube6
f 1/49/1 2/50/2 4/51/3 3/52/4
f 21/25/5 22/26/6 23/27/7 24/28/8
f 5/53/9 6/54/10 8/55/11 7/56/12
f 7/29/13 8/30/14 2/31/15 1/32/16
f 2/1/17 8/2/18 6/3/19 4/4/20
f 7/5/21 1/6/22 3/7/23 5/8/24
f 3/33/25 4/34/26 10/35/27 9/36/28
f 4/34/29 6/37/30 11/38/31 10/35/32
f 6/37/33 5/39/34 12/40/35 11/38/36
f 5/39/37 3/33/38 9/36/39 12/40/40
f 9/57/41 10/58/42 14/59/43 13/60/44
f 10/9/45 11/10/46 15/11/47 14/12/48
f 11/61/49 12/62/50 16/63/51 15/64/52
f 12/13/53 9/14/54 13/15/55 16/16/56
f 13/41/57 14/42/58 18/43/59 17/44/60
f 14/42/61 15/45/62 19/46/63 18/43/64
f 15/45/65 16/47/66 20/48/67 19/46/68
f 16/47/69 13/41/70 17/44/71 20/48/72
f 17/65/73 18/66/74 22/67/75 21/68/76
f 18/17/77 19/18/78 23/19/79 22/20/80
f 19/69/81 20/70/82 24/71/83 23/72/84
f 20/21/85 17/22/86 21/23/87 24/24/88
