# This file uses centimeters as units for non-parametric coordinates.

mtllib Tree.mtl
g default
v -6.688658 12.585397 0.903161
v -3.036052 12.585397 4.808962
v -6.688658 17.932993 0.903161
v -3.036052 17.932993 4.808962
v -2.782854 17.932993 -2.749447
v 0.869751 17.932993 1.156354
v -2.782854 12.585397 -2.749447
v 0.869751 12.585397 1.156354
v -5.374959 18.868820 -1.606657
v 2.192466 15.259193 1.200666
v -0.273041 11.649567 -1.435748
v -2.738548 15.259193 -4.072162
v -0.443945 11.649567 3.666170
v -5.374959 11.649567 -1.606657
v -5.545866 11.649567 3.495264
v -3.080359 15.259193 6.131677
v -5.545866 18.868820 3.495264
v -8.011373 15.259193 0.858850
v -0.443945 18.868820 3.666170
v -0.273041 18.868820 -1.435748
v -6.424673 15.259193 4.317102
v -2.909452 20.072029 1.029757
v 0.605765 15.259193 -2.257584
v -2.909452 10.446357 1.029757
v 0.377891 15.259193 4.544976
v -6.196795 15.259193 -2.485463
v -3.375096 11.398736 -1.385571
v 0.277507 11.398736 2.520227
v -3.375096 16.746334 -1.385571
v 0.277507 16.746334 2.520227
v 0.530700 16.746330 -5.038172
v 4.183304 16.746334 -1.132374
v 0.530700 11.398736 -5.038172
v 4.183304 11.398736 -1.132374
v -2.061404 17.682161 -3.895387
v 5.506028 14.072535 -1.088067
v 3.040521 10.462909 -3.724480
v 0.575012 14.072535 -6.360896
v 2.869612 10.462909 1.377442
v -2.061404 10.462909 -3.895387
v -2.232311 10.462909 1.206538
v 0.233196 14.072535 3.842952
v -2.232311 17.682161 1.206538
v -4.697820 14.072535 -1.429878
v 2.869612 17.682161 1.377442
v 3.040521 17.682161 -3.724480
v -3.111111 14.072535 2.028370
v 0.404105 18.885370 -1.258971
v 3.919322 14.072535 -4.546312
v 0.404105 9.259699 -1.258971
v 3.691448 14.072535 2.256248
v -2.883238 14.072535 -4.774190
v -5.147090 8.178517 2.551590
v -1.899405 10.625744 6.024401
v -6.818635 12.933288 0.764174
v -3.570950 15.380514 4.236986
v -2.912831 12.933288 -2.888434
v 0.334853 15.380514 0.584378
v -1.241286 8.178517 -1.101018
v 2.006399 10.625744 2.371793
v -5.726597 13.337108 -1.982671
v 2.422480 13.431394 1.446624
v 1.358585 8.570044 0.308980
v -1.961891 10.127638 -3.241668
v 0.914361 10.221921 5.118633
v -3.470010 6.918167 0.430341
v -3.914240 8.570044 5.239992
v -2.850345 13.431394 6.377635
v -6.170823 14.988988 2.826985
v -7.234716 10.127638 1.689343
v -1.342224 16.640862 2.705624
v -0.897998 14.988988 -2.104027
v -5.921341 11.779514 4.855325
v -3.910508 16.058809 -0.040692
v 1.109098 11.779514 -1.719361
v -0.901725 7.500219 3.176657
v 0.516796 13.982019 4.693509
v -5.329032 9.577010 -1.557546
v -1.097739 8.011611 -0.458715
v 0.503246 8.252710 0.409551
v -0.888641 7.593921 2.175447
v -2.470171 7.235498 0.484287
v -0.679196 6.041657 -0.406226
v 0.350794 6.196765 0.152369
v -0.544675 5.772939 1.288451
v -1.562145 5.542346 0.200451
v 0.398872 2.846855 -0.998389
v 1.428859 3.001966 -0.439796
v 0.533391 2.578140 0.696286
v -0.484079 2.347547 -0.391714
v 0.321568 -0.539856 -1.344280
v 1.889474 -0.539853 -0.493959
v 0.526348 -0.539859 1.235451
v -1.022507 -0.539863 -0.420769
vt 0.742463 0.026163
vt 0.811523 0.001992
vt 0.811523 0.095223
vt 0.718292 0.095223
vt 0.880583 0.026163
vt 0.904754 0.095223
vt 0.880583 0.164283
vt 0.811523 0.188454
vt 0.742463 0.164283
vt 0.745630 0.354376
vt 0.721459 0.285316
vt 0.814690 0.285316
vt 0.814690 0.378547
vt 0.745630 0.216256
vt 0.814690 0.192085
vt 0.883750 0.216256
vt 0.907921 0.285316
vt 0.883750 0.354376
vt 0.553586 0.256893
vt 0.622647 0.232722
vt 0.622647 0.325953
vt 0.529415 0.325953
vt 0.691707 0.256893
vt 0.715878 0.325953
vt 0.691707 0.395013
vt 0.622647 0.419184
vt 0.553586 0.395013
vt 0.361543 0.404003
vt 0.337372 0.334943
vt 0.430603 0.334943
vt 0.430603 0.428174
vt 0.361543 0.265883
vt 0.430603 0.241712
vt 0.499663 0.265883
vt 0.523834 0.334943
vt 0.499663 0.404003
vt 0.169499 0.265883
vt 0.238560 0.241712
vt 0.238560 0.334943
vt 0.145329 0.334943
vt 0.307620 0.265883
vt 0.331791 0.334943
vt 0.307620 0.404003
vt 0.238560 0.428174
vt 0.169499 0.404003
vt 0.025983 0.455976
vt 0.095043 0.431805
vt 0.095043 0.525036
vt 0.001812 0.525036
vt 0.164103 0.455976
vt 0.188274 0.525036
vt 0.164103 0.594096
vt 0.095043 0.618267
vt 0.025983 0.594096
vt 0.219420 0.594096
vt 0.195249 0.525036
vt 0.288480 0.525036
vt 0.288480 0.618267
vt 0.219420 0.455976
vt 0.288480 0.431805
vt 0.357541 0.455976
vt 0.381711 0.525036
vt 0.357541 0.594096
vt 0.412680 0.455976
vt 0.481740 0.431805
vt 0.481740 0.525036
vt 0.388509 0.525036
vt 0.550800 0.455976
vt 0.574971 0.525036
vt 0.550800 0.594096
vt 0.481740 0.618267
vt 0.412680 0.594096
vt 0.605940 0.585106
vt 0.581769 0.516046
vt 0.675000 0.516046
vt 0.675000 0.609277
vt 0.605940 0.446986
vt 0.675000 0.422815
vt 0.744060 0.446986
vt 0.768231 0.516046
vt 0.744060 0.585106
vt 0.745630 0.637079
vt 0.814690 0.612908
vt 0.814690 0.706139
vt 0.721459 0.706139
vt 0.883750 0.637079
vt 0.907921 0.706139
vt 0.883750 0.775199
vt 0.814690 0.799370
vt 0.745630 0.775199
vt 0.553586 0.784189
vt 0.529415 0.715129
vt 0.622646 0.715129
vt 0.622646 0.808361
vt 0.553586 0.646069
vt 0.622646 0.621898
vt 0.691706 0.646069
vt 0.715877 0.715129
vt 0.691706 0.784189
vt 0.361543 0.784189
vt 0.337372 0.715129
vt 0.430603 0.715129
vt 0.430603 0.808360
vt 0.361543 0.646069
vt 0.430603 0.621898
vt 0.499663 0.646069
vt 0.523834 0.715129
vt 0.499663 0.784189
vt 0.001812 0.934800
vt 0.011925 0.862334
vt 0.094820 0.905000
vt 0.052155 0.987895
vt 0.065020 0.811991
vt 0.137486 0.822104
vt 0.187829 0.875199
vt 0.177716 0.947665
vt 0.124621 0.998008
vt 0.164103 0.157353
vt 0.188274 0.210449
vt 0.095043 0.238081
vt 0.095043 0.167783
vt 0.248895 0.621898
vt 0.321360 0.646069
vt 0.331790 0.715129
vt 0.234673 0.715129
vt 0.321360 0.784189
vt 0.248895 0.808360
vt 0.001812 0.210449
vt 0.025983 0.157353
vt 0.256684 0.998008
vt 0.203589 0.947665
vt 0.286485 0.905000
vt 0.329150 0.987895
vt 0.193476 0.875200
vt 0.243819 0.822104
vt 0.316285 0.811992
vt 0.369380 0.862334
vt 0.379493 0.934800
vt 0.401313 0.864270
vt 0.386736 0.820568
vt 0.442961 0.811992
vt 0.442961 0.870560
vt 0.381711 0.029624
vt 0.357540 0.082719
vt 0.288480 0.072289
vt 0.288480 0.001992
vt 0.219420 0.082719
vt 0.195249 0.029624
vt 0.131974 0.715129
vt 0.229091 0.715129
vt 0.214869 0.808360
vt 0.142404 0.784189
vt 0.288480 0.169407
vt 0.195249 0.155185
vt 0.381711 0.155185
vt 0.357540 0.205528
vt 0.288480 0.238081
vt 0.219420 0.205528
vt 0.025983 0.034545
vt 0.095043 0.001992
vt 0.095043 0.070666
vt 0.001812 0.084888
vt 0.164103 0.034545
vt 0.188274 0.084888
vt 0.142404 0.646069
vt 0.214869 0.621898
vt 0.201677 0.639808
vt 0.157053 0.654692
vt 0.210435 0.697219
vt 0.150631 0.697219
vt 0.388509 0.008219
vt 0.433133 0.001992
vt 0.425592 0.055094
vt 0.396883 0.059100
vt 0.504430 0.229090
vt 0.447019 0.212075
vt 0.469156 0.165042
vt 0.506091 0.175989
vt 0.705402 0.212075
vt 0.645598 0.202818
vt 0.656263 0.159086
vt 0.694738 0.165042
vt 0.638325 0.202818
vt 0.595798 0.222863
vt 0.588829 0.171983
vt 0.616188 0.159086
vt 0.433440 0.137611
vt 0.404731 0.141617
vt 0.499940 0.082525
vt 0.536876 0.093472
vt 0.664111 0.076569
vt 0.702586 0.082525
vt 0.558045 0.089466
vt 0.585404 0.076569
vt 0.440544 0.229090
vt 0.396842 0.229090
vt 0.490296 0.001992
vt 0.546521 0.001992
vt 0.654064 0.001992
vt 0.712632 0.001992
vt 0.553401 0.001992
vt 0.595049 0.001992
vn -0.873521 -0.348155 0.340220
vn -0.873521 -0.348155 0.340220
vn -0.873521 -0.348155 0.340220
vn -0.873521 -0.348155 0.340220
vn -0.397915 -0.348155 0.848794
vn -0.397915 -0.348155 0.848794
vn -0.397915 -0.348155 0.848794
vn -0.397915 -0.348155 0.848794
vn -0.397916 0.348155 0.848794
vn -0.397916 0.348155 0.848794
vn -0.397916 0.348155 0.848794
vn -0.397916 0.348155 0.848794
vn -0.873521 0.348155 0.340220
vn -0.873521 0.348155 0.340220
vn -0.873521 0.348155 0.340220
vn -0.873521 0.348155 0.340220
vn -0.492089 0.870389 -0.016484
vn -0.492089 0.870389 -0.016484
vn -0.492089 0.870389 -0.016484
vn -0.492089 0.870389 -0.016484
vn -0.016484 0.870389 0.492089
vn -0.016484 0.870389 0.492089
vn -0.016484 0.870389 0.492089
vn -0.016484 0.870389 0.492089
vn 0.492089 0.870389 0.016484
vn 0.492089 0.870389 0.016484
vn 0.492089 0.870389 0.016484
vn 0.492089 0.870389 0.016484
vn 0.016485 0.870389 -0.492089
vn 0.016485 0.870389 -0.492089
vn 0.016485 0.870389 -0.492089
vn 0.016485 0.870389 -0.492089
vn 0.397916 0.348155 -0.848794
vn 0.397916 0.348155 -0.848794
vn 0.397916 0.348155 -0.848794
vn 0.397916 0.348155 -0.848794
vn 0.873521 0.348155 -0.340221
vn 0.873521 0.348155 -0.340221
vn 0.873521 0.348155 -0.340221
vn 0.873521 0.348155 -0.340221
vn 0.873521 -0.348155 -0.340221
vn 0.873521 -0.348155 -0.340221
vn 0.873521 -0.348155 -0.340221
vn 0.873521 -0.348155 -0.340221
vn 0.397916 -0.348155 -0.848794
vn 0.397916 -0.348155 -0.848794
vn 0.397916 -0.348155 -0.848794
vn 0.397916 -0.348155 -0.848794
vn 0.016485 -0.870389 -0.492090
vn 0.016485 -0.870389 -0.492090
vn 0.016485 -0.870389 -0.492090
vn 0.016485 -0.870389 -0.492090
vn 0.492090 -0.870388 0.016484
vn 0.492090 -0.870388 0.016484
vn 0.492090 -0.870388 0.016484
vn 0.492090 -0.870388 0.016484
vn -0.016484 -0.870389 0.492089
vn -0.016484 -0.870389 0.492089
vn -0.016484 -0.870389 0.492089
vn -0.016484 -0.870389 0.492089
vn -0.492090 -0.870388 -0.016484
vn -0.492090 -0.870389 -0.016484
vn -0.492090 -0.870388 -0.016484
vn -0.492090 -0.870388 -0.016484
vn 0.340220 -0.348155 0.873521
vn 0.340220 -0.348155 0.873521
vn 0.340220 -0.348155 0.873521
vn 0.340220 -0.348155 0.873521
vn 0.848794 -0.348155 0.397915
vn 0.848794 -0.348155 0.397915
vn 0.848794 -0.348155 0.397915
vn 0.848794 -0.348155 0.397915
vn 0.848794 0.348155 0.397915
vn 0.848794 0.348155 0.397915
vn 0.848794 0.348155 0.397915
vn 0.848794 0.348155 0.397915
vn 0.340221 0.348155 0.873520
vn 0.340221 0.348155 0.873520
vn 0.340221 0.348155 0.873520
vn 0.340221 0.348155 0.873520
vn -0.340220 -0.348155 -0.873521
vn -0.340220 -0.348155 -0.873521
vn -0.340220 -0.348155 -0.873521
vn -0.340220 -0.348155 -0.873521
vn -0.848794 -0.348155 -0.397915
vn -0.848794 -0.348155 -0.397915
vn -0.848794 -0.348155 -0.397915
vn -0.848794 -0.348155 -0.397915
vn -0.848794 0.348155 -0.397916
vn -0.848794 0.348155 -0.397915
vn -0.848794 0.348155 -0.397915
vn -0.848794 0.348155 -0.397916
vn -0.340220 0.348155 -0.873521
vn -0.340220 0.348155 -0.873521
vn -0.340220 0.348155 -0.873521
vn -0.340220 0.348155 -0.873521
vn -0.873520 -0.348155 0.340221
vn -0.873521 -0.348155 0.340221
vn -0.873521 -0.348155 0.340221
vn -0.873521 -0.348155 0.340221
vn -0.397915 -0.348155 0.848794
vn -0.397915 -0.348155 0.848794
vn -0.397915 -0.348155 0.848794
vn -0.397915 -0.348155 0.848794
vn -0.397915 0.348155 0.848794
vn -0.397915 0.348155 0.848794
vn -0.397915 0.348155 0.848794
vn -0.397915 0.348155 0.848794
vn -0.873520 0.348155 0.340221
vn -0.873521 0.348155 0.340221
vn -0.873521 0.348155 0.340221
vn -0.873521 0.348155 0.340221
vn -0.492090 0.870389 -0.016485
vn -0.492090 0.870389 -0.016485
vn -0.492090 0.870389 -0.016485
vn -0.492090 0.870389 -0.016485
vn -0.016484 0.870389 0.492090
vn -0.016484 0.870389 0.492090
vn -0.016484 0.870389 0.492089
vn -0.016484 0.870389 0.492090
vn 0.492090 0.870388 0.016485
vn 0.492090 0.870388 0.016485
vn 0.492090 0.870388 0.016485
vn 0.492090 0.870388 0.016485
vn 0.016484 0.870388 -0.492091
vn 0.016484 0.870388 -0.492091
vn 0.016484 0.870388 -0.492091
vn 0.016484 0.870388 -0.492091
vn 0.397915 0.348155 -0.848794
vn 0.397915 0.348155 -0.848794
vn 0.397915 0.348156 -0.848794
vn 0.397915 0.348156 -0.848794
vn 0.873521 0.348155 -0.340220
vn 0.873521 0.348155 -0.340220
vn 0.873521 0.348155 -0.340220
vn 0.873521 0.348155 -0.340220
vn 0.873521 -0.348155 -0.340220
vn 0.873521 -0.348155 -0.340220
vn 0.873521 -0.348155 -0.340220
vn 0.873521 -0.348155 -0.340220
vn 0.397915 -0.348155 -0.848794
vn 0.397915 -0.348155 -0.848794
vn 0.397915 -0.348155 -0.848794
vn 0.397915 -0.348155 -0.848794
vn 0.016484 -0.870388 -0.492090
vn 0.016484 -0.870388 -0.492090
vn 0.016484 -0.870388 -0.492090
vn 0.016484 -0.870388 -0.492090
vn 0.492090 -0.870388 0.016485
vn 0.492090 -0.870388 0.016485
vn 0.492090 -0.870388 0.016485
vn 0.492090 -0.870388 0.016485
vn -0.016484 -0.870388 0.492090
vn -0.016484 -0.870388 0.492090
vn -0.016484 -0.870388 0.492090
vn -0.016484 -0.870388 0.492090
vn -0.492090 -0.870388 -0.016484
vn -0.492090 -0.870388 -0.016484
vn -0.492090 -0.870388 -0.016484
vn -0.492090 -0.870388 -0.016484
vn 0.340220 -0.348156 0.873521
vn 0.340220 -0.348156 0.873520
vn 0.340220 -0.348156 0.873520
vn 0.340220 -0.348156 0.873521
vn 0.848794 -0.348156 0.397915
vn 0.848794 -0.348156 0.397915
vn 0.848794 -0.348156 0.397915
vn 0.848794 -0.348156 0.397915
vn 0.848794 0.348156 0.397915
vn 0.848794 0.348156 0.397915
vn 0.848794 0.348156 0.397915
vn 0.848794 0.348156 0.397915
vn 0.340220 0.348156 0.873521
vn 0.340220 0.348156 0.873521
vn 0.340220 0.348156 0.873521
vn 0.340220 0.348156 0.873521
vn -0.340220 -0.348155 -0.873521
vn -0.340220 -0.348155 -0.873520
vn -0.340220 -0.348155 -0.873521
vn -0.340220 -0.348155 -0.873521
vn -0.848794 -0.348155 -0.397915
vn -0.848794 -0.348155 -0.397915
vn -0.848794 -0.348155 -0.397915
vn -0.848794 -0.348155 -0.397915
vn -0.848794 0.348155 -0.397916
vn -0.848794 0.348155 -0.397916
vn -0.848794 0.348155 -0.397916
vn -0.848794 0.348155 -0.397916
vn -0.340220 0.348156 -0.873521
vn -0.340220 0.348156 -0.873520
vn -0.340220 0.348156 -0.873521
vn -0.340220 0.348156 -0.873520
vn -0.738333 -0.468886 0.484779
vn -0.738333 -0.468886 0.484779
vn -0.738333 -0.468886 0.484779
vn -0.738333 -0.468886 0.484779
vn -0.315452 -0.150233 0.936974
vn -0.315452 -0.150233 0.936974
vn -0.315452 -0.150233 0.936974
vn -0.315452 -0.150233 0.936974
vn -0.533103 0.468886 0.704235
vn -0.533103 0.468886 0.704235
vn -0.533103 0.468885 0.704235
vn -0.533103 0.468885 0.704235
vn -0.955984 0.150233 0.252040
vn -0.955984 0.150233 0.252040
vn -0.955984 0.150233 0.252040
vn -0.955984 0.150233 0.252040
vn -0.737792 0.614573 -0.279219
vn -0.737792 0.614573 -0.279219
vn -0.737792 0.614573 -0.279219
vn -0.737792 0.614573 -0.279219
vn -0.314911 0.933226 0.172975
vn -0.314911 0.933226 0.172975
vn -0.314911 0.933226 0.172975
vn -0.314911 0.933226 0.172975
vn 0.193662 0.933226 -0.302629
vn 0.193662 0.933226 -0.302629
vn 0.193662 0.933226 -0.302629
vn 0.193662 0.933226 -0.302629
vn -0.229218 0.614573 -0.754824
vn -0.229218 0.614573 -0.754824
vn -0.229218 0.614573 -0.754824
vn -0.229218 0.614573 -0.754824
vn 0.315452 0.150233 -0.936974
vn 0.315452 0.150233 -0.936974
vn 0.315452 0.150233 -0.936974
vn 0.315452 0.150233 -0.936974
vn 0.738332 0.468885 -0.484780
vn 0.738332 0.468885 -0.484780
vn 0.738332 0.468885 -0.484780
vn 0.738332 0.468885 -0.484780
vn 0.955984 -0.150233 -0.252041
vn 0.955984 -0.150233 -0.252041
vn 0.955984 -0.150233 -0.252041
vn 0.955984 -0.150233 -0.252041
vn 0.533103 -0.468886 -0.704235
vn 0.533103 -0.468886 -0.704235
vn 0.533103 -0.468886 -0.704235
vn 0.533103 -0.468886 -0.704235
vn 0.000003 -1.000000 -0.000001
vn 0.000003 -1.000000 -0.000001
vn 0.000003 -1.000000 -0.000001
vn 0.000003 -1.000000 -0.000001
vn 0.737793 -0.614572 0.279218
vn 0.737793 -0.614572 0.279218
vn 0.737793 -0.614572 0.279218
vn 0.737793 -0.614572 0.279218
vn 0.229218 -0.614572 0.754824
vn 0.229218 -0.614572 0.754824
vn 0.229218 -0.614572 0.754824
vn 0.229218 -0.614572 0.754824
vn -0.193663 -0.933226 0.302630
vn -0.193663 -0.933226 0.302630
vn -0.193663 -0.933226 0.302630
vn -0.193663 -0.933226 0.302630
vn 0.383141 0.088758 0.919416
vn 0.383141 0.088758 0.919416
vn 0.383141 0.088758 0.919416
vn 0.383141 0.088758 0.919416
vn 0.891714 0.088758 0.443811
vn 0.891714 0.088758 0.443811
vn 0.891714 0.088758 0.443811
vn 0.891714 0.088758 0.443811
vn 0.674062 0.707876 0.211072
vn 0.674062 0.707876 0.211072
vn 0.674062 0.707876 0.211072
vn 0.674062 0.707876 0.211072
vn 0.165489 0.707876 0.686676
vn 0.165489 0.707876 0.686677
vn 0.165489 0.707876 0.686677
vn 0.165489 0.707876 0.686676
vn -0.165488 -0.707876 -0.686677
vn -0.165488 -0.707876 -0.686677
vn -0.165488 -0.707876 -0.686677
vn -0.165488 -0.707876 -0.686677
vn -0.674062 -0.707876 -0.211071
vn -0.674062 -0.707876 -0.211071
vn -0.674062 -0.707876 -0.211071
vn -0.674062 -0.707876 -0.211071
vn -0.891714 -0.088758 -0.443810
vn -0.891714 -0.088758 -0.443810
vn -0.891714 -0.088758 -0.443810
vn -0.891714 -0.088758 -0.443810
vn -0.383140 -0.088758 -0.919416
vn -0.383140 -0.088758 -0.919416
vn -0.383140 -0.088758 -0.919416
vn -0.383140 -0.088758 -0.919416
vn 0.300139 -0.904765 -0.302188
vn 0.300139 -0.904765 -0.302188
vn 0.300139 -0.904765 -0.302188
vn 0.300139 -0.904765 -0.302188
vn 0.337999 -0.937451 -0.083316
vn 0.337999 -0.937451 -0.083316
vn 0.337999 -0.937451 -0.083316
vn 0.337999 -0.937451 -0.083316
vn 0.305575 -0.948388 -0.084765
vn 0.305575 -0.948388 -0.084765
vn 0.305575 -0.948388 -0.084765
vn 0.305575 -0.948388 -0.084765
vn 0.303124 -0.903644 -0.302561
vn 0.303124 -0.903644 -0.302561
vn 0.303124 -0.903644 -0.302561
vn 0.303124 -0.903644 -0.302561
vn 0.466543 0.075643 -0.881258
vn 0.466543 0.075643 -0.881258
vn 0.466543 0.075643 -0.881258
vn 0.466543 0.075643 -0.881258
vn 0.801866 -0.132347 0.582662
vn 0.801866 -0.132347 0.582662
vn 0.801866 -0.132347 0.582662
vn 0.801866 -0.132347 0.582662
vn -0.608696 -0.437406 0.661941
vn -0.608696 -0.437406 0.661941
vn -0.608696 -0.437406 0.661941
vn -0.608696 -0.437406 0.661941
vn -0.510031 -0.131014 -0.850120
vn -0.510031 -0.131014 -0.850120
vn -0.510031 -0.131014 -0.850120
vn -0.510031 -0.131014 -0.850120
vn 0.419387 0.300310 -0.856696
vn 0.419387 0.300310 -0.856696
vn 0.419387 0.300310 -0.856696
vn 0.419387 0.300310 -0.856696
vn 0.753134 0.134790 0.643911
vn 0.753134 0.134790 0.643911
vn 0.753134 0.134790 0.643911
vn 0.753134 0.134790 0.643911
vn -0.648112 -0.344580 0.679129
vn -0.648112 -0.344580 0.679129
vn -0.648112 -0.344580 0.679129
vn -0.648112 -0.344580 0.679129
vn -0.553456 -0.032502 -0.832244
vn -0.553456 -0.032502 -0.832244
vn -0.553456 -0.032502 -0.832244
vn -0.553456 -0.032502 -0.832244
vn 0.471777 0.076817 -0.878365
vn 0.471777 0.076817 -0.878365
vn 0.471777 0.076817 -0.878365
vn 0.471777 0.076817 -0.878365
vn 0.774450 0.098257 0.624958
vn 0.774450 0.098257 0.624958
vn 0.774450 0.098257 0.624958
vn 0.774450 0.098257 0.624958
vn -0.729954 0.123405 0.672264
vn -0.729953 0.123405 0.672264
vn -0.729953 0.123405 0.672264
vn -0.729953 0.123405 0.672264
vn -0.579071 0.105144 -0.808468
vn -0.579071 0.105144 -0.808468
vn -0.579071 0.105144 -0.808468
vn -0.579071 0.105144 -0.808468
s off
g pCube5
usemtl initialShadingGroup
f 1/1/1 15/2/2 21/3/3 18/4/4
f 15/2/5 2/5/6 16/6/7 21/3/8
f 21/3/9 16/6/10 4/7/11 17/8/12
f 18/4/13 21/3/14 17/8/15 3/9/16
f 3/10/17 17/11/18 22/12/19 9/13/20
f 17/11/21 4/14/22 19/15/23 22/12/24
f 22/12/25 19/15/26 6/16/27 20/17/28
f 9/13/29 22/12/30 20/17/31 5/18/32
f 5/19/33 20/20/34 23/21/35 12/22/36
f 20/20/37 6/23/38 10/24/39 23/21/40
f 23/21/41 10/24/42 8/25/43 11/26/44
f 12/22/45 23/21/46 11/26/47 7/27/48
f 7/28/49 11/29/50 24/30/51 14/31/52
f 11/29/53 8/32/54 13/33/55 24/30/56
f 24/30/57 13/33/58 2/34/59 15/35/60
f 14/31/61 24/30/62 15/35/63 1/36/64
f 2/37/65 13/38/66 25/39/67 16/40/68
f 13/38/69 8/41/70 10/42/71 25/39/72
f 25/39/73 10/42/74 6/43/75 19/44/76
f 16/40/77 25/39/78 19/44/79 4/45/80
f 7/46/81 14/47/82 26/48/83 12/49/84
f 14/47/85 1/50/86 18/51/87 26/48/88
f 26/48/89 18/51/90 3/52/91 9/53/92
f 12/49/93 26/48/94 9/53/95 5/54/96
f 27/55/97 41/56/98 47/57/99 44/58/100
f 41/56/101 28/59/102 42/60/103 47/57/104
f 47/57/105 42/60/106 30/61/107 43/62/108
f 44/58/109 47/57/110 43/62/111 29/63/112
f 29/64/113 43/65/114 48/66/115 35/67/116
f 43/65/117 30/68/118 45/69/119 48/66/120
f 48/66/121 45/69/122 32/70/123 46/71/124
f 35/67/125 48/66/126 46/71/127 31/72/128
f 31/73/129 46/74/130 49/75/131 38/76/132
f 46/74/133 32/77/134 36/78/135 49/75/136
f 49/75/137 36/78/138 34/79/139 37/80/140
f 38/76/141 49/75/142 37/80/143 33/81/144
f 33/82/145 37/83/146 50/84/147 40/85/148
f 37/83/149 34/86/150 39/87/151 50/84/152
f 50/84/153 39/87/154 28/88/155 41/89/156
f 40/85/157 50/84/158 41/89/159 27/90/160
f 28/91/161 39/92/162 51/93/163 42/94/164
f 39/92/165 34/95/166 36/96/167 51/93/168
f 51/93/169 36/96/170 32/97/171 45/98/172
f 42/94/173 51/93/174 45/98/175 30/99/176
f 33/100/177 40/101/178 52/102/179 38/103/180
f 40/101/181 27/104/182 44/105/183 52/102/184
f 52/102/185 44/105/186 29/106/187 35/107/188
f 38/103/189 52/102/190 35/107/191 31/108/192
f 53/109/193 67/110/194 73/111/195 70/112/196
f 67/110/197 54/113/198 68/114/199 73/111/200
f 73/111/201 68/114/202 56/115/203 69/116/204
f 70/112/205 73/111/206 69/116/207 55/117/208
f 55/118/209 69/119/210 74/120/211 61/121/212
f 69/122/213 56/123/214 71/124/215 74/125/216
f 74/125/217 71/124/218 58/126/219 72/127/220
f 61/121/221 74/120/222 72/128/223 57/129/224
f 57/130/225 72/131/226 75/132/227 64/133/228
f 72/131/229 58/134/230 62/135/231 75/132/232
f 75/132/233 62/135/234 60/136/235 63/137/236
f 64/133/237 75/132/238 63/137/239 59/138/240
f 91/139/241 92/140/242 93/141/243 94/142/244
f 63/143/245 60/144/246 65/145/247 76/146/248
f 76/146/249 65/145/250 54/147/251 67/148/252
f 66/149/253 76/150/254 67/151/255 53/152/256
f 54/147/257 65/145/258 77/153/259 68/154/260
f 65/145/261 60/144/262 62/155/263 77/153/264
f 77/153/265 62/155/266 58/156/267 71/157/268
f 68/154/269 77/153/270 71/157/271 56/158/272
f 59/159/273 66/160/274 78/161/275 64/162/276
f 66/160/277 53/163/278 70/164/279 78/161/280
f 78/161/281 70/164/282 55/118/283 61/121/284
f 64/162/285 78/161/286 61/121/287 57/129/288
f 59/165/289 63/166/290 80/167/291 79/168/292
f 63/166/293 76/150/294 81/169/295 80/167/296
f 76/150/297 66/149/298 82/170/299 81/169/300
f 66/149/301 59/165/302 79/168/303 82/170/304
f 79/171/305 80/172/306 84/173/307 83/174/308
f 80/175/309 81/176/310 85/177/311 84/178/312
f 81/179/313 82/180/314 86/181/315 85/182/316
f 82/183/317 79/184/318 83/185/319 86/186/320
f 83/174/321 84/173/322 88/187/323 87/188/324
f 84/178/325 85/177/326 89/189/327 88/190/328
f 85/182/329 86/181/330 90/191/331 89/192/332
f 86/186/333 83/185/334 87/193/335 90/194/336
f 87/188/337 88/187/338 92/195/339 91/196/340
f 88/190/341 89/189/342 93/197/343 92/198/344
f 89/192/345 90/191/346 94/199/347 93/200/348
f 90/194/349 87/193/350 91/201/351 94/202/352
