# This file uses centimeters as units for non-parametric coordinates.

mtllib VoidStar.mtl
g default
v 23.404710 149.658492 -28.495640
v -3.861592 152.289824 -37.833908
v -25.800383 143.629613 -21.062847
v -20.472874 132.338071 5.046480
v 6.793428 129.706740 14.384746
v 28.732217 138.366952 -2.386318
v 31.026139 179.664666 -23.717860
v -7.534235 183.385932 -36.924165
v -38.560371 171.138545 -13.206303
v -31.026135 155.169892 23.717863
v 7.534240 151.448629 36.924164
v 38.560373 163.696017 13.206298
v 20.472877 202.496488 -5.046479
v -6.793424 205.127821 -14.384747
v -28.732215 196.467610 2.386315
v -23.404706 185.176068 28.495642
v 3.861596 182.544737 37.833907
v 25.800384 191.204949 21.062843
v 2.073119 130.055173 -16.581061
v -2.073119 204.779386 16.581061
vt 0.000000 0.250000
vt 0.166667 0.250000
vt 0.333333 0.250000
vt 0.500000 0.250000
vt 0.666667 0.250000
vt 0.833333 0.250000
vt 1.000000 0.250000
vt 0.000000 0.500000
vt 0.166667 0.500000
vt 0.333333 0.500000
vt 0.500000 0.500000
vt 0.666667 0.500000
vt 0.833333 0.500000
vt 1.000000 0.500000
vt 0.000000 0.750000
vt 0.166667 0.750000
vt 0.333333 0.750000
vt 0.500000 0.750000
vt 0.666667 0.750000
vt 0.833333 0.750000
vt 1.000000 0.750000
vt 0.083333 0.000000
vt 0.250000 0.000000
vt 0.416667 0.000000
vt 0.583333 0.000000
vt 0.750000 0.000000
vt 0.916667 0.000000
vt 0.083333 1.000000
vt 0.250000 1.000000
vt 0.416667 1.000000
vt 0.583333 1.000000
vt 0.750000 1.000000
vt 0.916667 1.000000
vn 0.329024 0.066418 -0.941983
vn 0.329024 0.066418 -0.941983
vn 0.329024 0.066418 -0.941983
vn 0.329024 0.066418 -0.941983
vn -0.594932 -0.046790 -0.802413
vn -0.594932 -0.046790 -0.802413
vn -0.594932 -0.046790 -0.802413
vn -0.594932 -0.046790 -0.802413
vn -0.906853 -0.421437 0.002780
vn -0.906853 -0.421437 0.002780
vn -0.906853 -0.421437 0.002780
vn -0.906853 -0.421437 0.002780
vn -0.294818 -0.682876 0.668403
vn -0.294818 -0.682876 0.668403
vn -0.294818 -0.682876 0.668403
vn -0.294818 -0.682876 0.668403
vn 0.629138 -0.569668 0.528833
vn 0.629138 -0.569668 0.528833
vn 0.629138 -0.569668 0.528833
vn 0.629138 -0.569668 0.528833
vn 0.941059 -0.195021 -0.276360
vn 0.941059 -0.195021 -0.276360
vn 0.941059 -0.195021 -0.276360
vn 0.941059 -0.195021 -0.276360
vn 0.294818 0.682876 -0.668403
vn 0.294818 0.682876 -0.668403
vn 0.294818 0.682876 -0.668403
vn 0.294818 0.682876 -0.668403
vn -0.629138 0.569668 -0.528833
vn -0.629138 0.569668 -0.528833
vn -0.629138 0.569668 -0.528833
vn -0.629138 0.569668 -0.528833
vn -0.941059 0.195021 0.276360
vn -0.941059 0.195021 0.276360
vn -0.941059 0.195021 0.276360
vn -0.941059 0.195021 0.276360
vn -0.329023 -0.066418 0.941983
vn -0.329023 -0.066418 0.941983
vn -0.329023 -0.066418 0.941983
vn -0.329023 -0.066418 0.941983
vn 0.594933 0.046790 0.802413
vn 0.594933 0.046790 0.802413
vn 0.594933 0.046790 0.802413
vn 0.594933 0.046790 0.802413
vn 0.906853 0.421437 -0.002781
vn 0.906853 0.421437 -0.002781
vn 0.906853 0.421437 -0.002781
vn 0.906853 0.421437 -0.002781
vn 0.188679 -0.651773 -0.734570
vn 0.188679 -0.651773 -0.734570
vn 0.188679 -0.651773 -0.734570
vn -0.234863 -0.703667 -0.670591
vn -0.234863 -0.703667 -0.670591
vn -0.234863 -0.703667 -0.670591
vn -0.377847 -0.875406 -0.301490
vn -0.377847 -0.875406 -0.301490
vn -0.377847 -0.875406 -0.301490
vn -0.097290 -0.995249 0.003632
vn -0.097290 -0.995249 0.003632
vn -0.097290 -0.995249 0.003632
vn 0.326251 -0.943355 -0.060347
vn 0.326251 -0.943355 -0.060347
vn 0.326251 -0.943355 -0.060347
vn 0.469236 -0.771616 -0.429448
vn 0.469236 -0.771616 -0.429448
vn 0.469236 -0.771617 -0.429448
vn 0.097290 0.995249 -0.003632
vn 0.097290 0.995249 -0.003632
vn 0.097290 0.995249 -0.003632
vn -0.326251 0.943355 0.060347
vn -0.326251 0.943355 0.060347
vn -0.326251 0.943355 0.060347
vn -0.469236 0.771616 0.429448
vn -0.469236 0.771616 0.429448
vn -0.469236 0.771616 0.429448
vn -0.188679 0.651773 0.734570
vn -0.188679 0.651773 0.734570
vn -0.188679 0.651773 0.734570
vn 0.234863 0.703667 0.670591
vn 0.234863 0.703667 0.670591
vn 0.234863 0.703667 0.670591
vn 0.377847 0.875406 0.301490
vn 0.377847 0.875406 0.301490
vn 0.377847 0.875406 0.301490
s off
g pSphere3
usemtl initialShadingGroup
f 1/1/1 2/2/2 8/9/3 7/8/4
f 2/2/5 3/3/6 9/10/7 8/9/8
f 3/3/9 4/4/10 10/11/11 9/10/12
f 4/4/13 5/5/14 11/12/15 10/11/16
f 5/5/17 6/6/18 12/13/19 11/12/20
f 6/6/21 1/7/22 7/14/23 12/13/24
f 7/8/25 8/9/26 14/16/27 13/15/28
f 8/9/29 9/10/30 15/17/31 14/16/32
f 9/10/33 10/11/34 16/18/35 15/17/36
f 10/11/37 11/12/38 17/19/39 16/18/40
f 11/12/41 12/13/42 18/20/43 17/19/44
f 12/13/45 7/14/46 13/21/47 18/20/48
f 2/2/49 1/1/50 19/22/51
f 3/3/52 2/2/53 19/23/54
f 4/4/55 3/3/56 19/24/57
f 5/5/58 4/4/59 19/25/60
f 6/6/61 5/5/62 19/26/63
f 1/7/64 6/6/65 19/27/66
f 13/15/67 14/16/68 20/28/69
f 14/16/70 15/17/71 20/29/72
f 15/17/73 16/18/74 20/30/75
f 16/18/76 17/19/77 20/31/78
f 17/19/79 18/20/80 20/32/81
f 18/20/82 13/21/83 20/33/84
