# This file uses centimeters as units for non-parametric coordinates.

mtllib Well.mtl
g default
v 7.161327 0.837925 25.780868
v 2.735383 0.837925 22.565231
v -2.735385 0.837925 22.565232
v -7.161329 0.837925 25.780869
v -8.851889 0.837925 30.983878
v -7.161327 0.837925 36.186887
v -2.735384 0.837925 39.402524
v 2.735384 0.837925 39.402523
v 7.161327 0.837925 36.186886
v 8.851887 0.837925 30.983878
v 11.935547 0.837925 22.312195
v 4.558972 0.837925 16.952801
v -4.558975 0.837925 16.952802
v -11.935548 0.837925 22.312197
v -14.753147 0.837925 30.983879
v -11.935547 0.837925 39.655560
v -4.558972 0.837925 45.014953
v 4.558973 0.837925 45.014953
v 11.935545 0.837925 39.655558
v 14.753145 0.837925 30.983878
v 14.322655 -0.000000 20.577858
v 5.470766 -0.000000 14.146584
v -5.470769 -0.000000 14.146586
v -14.322658 -0.000000 20.577860
v -17.703777 -0.000000 30.983879
v -14.322655 -0.000000 41.389897
v -5.470767 -0.000000 47.821170
v 5.470768 -0.000000 47.821168
v 14.322655 -0.000000 41.389895
v 17.703774 -0.000000 30.983878
v 11.935545 -0.837925 22.312195
v 4.558971 -0.837925 16.952801
v -4.558975 -0.837925 16.952803
v -11.935547 -0.837925 22.312197
v -14.753145 -0.837925 30.983879
v -11.935545 -0.837925 39.655559
v -4.558972 -0.837925 45.014952
v 4.558973 -0.837925 45.014952
v 11.935544 -0.837925 39.655558
v 14.753144 -0.837925 30.983878
v 7.161327 -0.837925 25.780868
v 2.735383 -0.837925 22.565232
v -2.735385 -0.837925 22.565232
v -7.161327 -0.837925 25.780870
v -8.851887 -0.837925 30.983878
v -7.161327 -0.837925 36.186887
v -2.735383 -0.837925 39.402523
v 2.735384 -0.837925 39.402522
v 7.161326 -0.837925 36.186886
v 8.851886 -0.837925 30.983878
v 11.935544 -63.176151 22.312195
v 4.558971 -63.176151 16.952802
v 7.161325 -63.176151 25.780869
v 2.735382 -63.176151 22.565234
v -4.558974 -63.176151 16.952803
v -2.735384 -63.176151 22.565234
v -11.935544 -63.176151 22.312198
v -7.161326 -63.176151 25.780872
v -14.753144 -63.176151 30.983879
v -8.851885 -63.176151 30.983879
v -11.935544 -63.176151 39.655558
v -7.161325 -63.176151 36.186886
v -4.558971 -63.176151 45.014951
v -2.735382 -63.176151 39.402521
v 4.558973 -63.176151 45.014951
v 2.735383 -63.176151 39.402520
v 11.935542 -63.176151 39.655557
v 7.161325 -63.176151 36.186885
v 14.753141 -63.176151 30.983878
v 8.851884 -63.176151 30.983878
vt 0.172197 0.998008
vt 0.150075 0.998008
vt 0.145650 0.984970
vt 0.172197 0.984970
vt 0.136402 0.998008
vt 0.129244 0.984970
vt 0.150075 0.971933
vt 0.172197 0.971933
vt 0.194319 0.998008
vt 0.198743 0.984970
vt 0.136402 0.971933
vt 0.150075 0.001992
vt 0.172197 0.001992
vt 0.194319 0.971933
vt 0.207991 0.998008
vt 0.215149 0.984970
vt 0.136402 0.001992
vt 0.194319 0.001992
vt 0.207991 0.971933
vt 0.207991 0.001992
vt 0.044043 0.998008
vt 0.021921 0.998008
vt 0.017497 0.984970
vt 0.044043 0.984970
vt 0.008249 0.998008
vt 0.001091 0.984970
vt 0.021921 0.971933
vt 0.044043 0.971933
vt 0.066166 0.998008
vt 0.070590 0.984970
vt 0.008249 0.971933
vt 0.021921 0.001992
vt 0.044043 0.001992
vt 0.066166 0.971933
vt 0.079838 0.998008
vt 0.086996 0.984970
vt 0.008249 0.001992
vt 0.066166 0.001992
vt 0.079838 0.971933
vt 0.079838 0.001992
vt 0.348160 0.998008
vt 0.348160 0.971933
vt 0.361434 0.971933
vt 0.361434 0.998008
vt 0.334887 0.998008
vt 0.334887 0.971933
vt 0.348160 0.001992
vt 0.361434 0.001992
vt 0.369637 0.971933
vt 0.369637 0.998008
vt 0.326684 0.998008
vt 0.326684 0.971933
vt 0.334887 0.001992
vt 0.369637 0.001992
vt 0.326684 0.001992
vt 0.278691 0.998008
vt 0.278691 0.971933
vt 0.291964 0.971933
vt 0.291964 0.998008
vt 0.265417 0.998008
vt 0.265417 0.971933
vt 0.278691 0.001992
vt 0.291964 0.001992
vt 0.300167 0.971933
vt 0.300167 0.998008
vt 0.257214 0.998008
vt 0.257214 0.971933
vt 0.265417 0.001992
vt 0.300167 0.001992
vt 0.257214 0.001992
vt 0.453424 0.032650
vt 0.445221 0.021359
vt 0.454070 0.009180
vt 0.467742 0.027998
vt 0.431948 0.017047
vt 0.431948 0.001992
vt 0.453424 0.046606
vt 0.467742 0.051258
vt 0.418674 0.021359
vt 0.409826 0.009180
vt 0.445221 0.057897
vt 0.454070 0.070077
vt 0.410471 0.032650
vt 0.396154 0.027998
vt 0.431948 0.062210
vt 0.431948 0.077265
vt 0.410471 0.046606
vt 0.396154 0.051258
vt 0.418674 0.057897
vt 0.409826 0.070077
vt 0.474764 0.027998
vt 0.488436 0.009180
vt 0.497285 0.021359
vt 0.489082 0.032650
vt 0.510558 0.001992
vt 0.510558 0.017046
vt 0.474764 0.051258
vt 0.489082 0.046606
vt 0.532680 0.009180
vt 0.523831 0.021359
vt 0.488436 0.070077
vt 0.497285 0.057897
vt 0.546352 0.027998
vt 0.532035 0.032650
vt 0.510558 0.077264
vt 0.510558 0.062210
vt 0.546352 0.051258
vt 0.532035 0.046606
vt 0.532680 0.070077
vt 0.523831 0.057897
vt 0.096835 0.001992
vt 0.120095 0.001992
vt 0.122421 0.015030
vt 0.094509 0.015030
vt 0.120095 0.028068
vt 0.096835 0.028068
vt 0.120095 0.998008
vt 0.096835 0.998008
vt 0.248066 0.998008
vt 0.224805 0.998008
vt 0.222479 0.984970
vt 0.250392 0.984970
vt 0.224805 0.971933
vt 0.248066 0.971933
vt 0.224805 0.001992
vt 0.248066 0.001992
vt 0.306574 0.998008
vt 0.306574 0.971933
vt 0.320531 0.971933
vt 0.320531 0.998008
vt 0.306574 0.001992
vt 0.320531 0.001992
vt 0.390000 0.001992
vt 0.390000 0.028068
vt 0.376044 0.028068
vt 0.376044 0.001992
vt 0.390000 0.998008
vt 0.376044 0.998008
vn 0.000000 1.000000 -0.000000
vn 0.000000 1.000000 -0.000000
vn 0.000000 1.000000 -0.000000
vn 0.000000 1.000000 -0.000000
vn -0.000000 1.000000 -0.000000
vn -0.000000 1.000000 -0.000000
vn -0.000000 1.000000 -0.000000
vn -0.000000 1.000000 -0.000000
vn -0.000000 1.000000 -0.000000
vn -0.000000 1.000000 -0.000000
vn -0.000000 1.000000 -0.000000
vn -0.000000 1.000000 -0.000000
vn -0.000000 1.000000 0.000000
vn -0.000000 1.000000 0.000000
vn -0.000000 1.000000 0.000000
vn -0.000000 1.000000 0.000000
vn -0.000000 1.000000 0.000000
vn -0.000000 1.000000 0.000000
vn -0.000000 1.000000 0.000000
vn -0.000000 1.000000 0.000000
vn -0.000000 1.000000 0.000000
vn -0.000000 1.000000 0.000000
vn -0.000000 1.000000 0.000000
vn -0.000000 1.000000 0.000000
vn 0.000000 1.000000 0.000000
vn 0.000000 1.000000 0.000000
vn 0.000000 1.000000 0.000000
vn 0.000000 1.000000 0.000000
vn 0.000000 1.000000 0.000000
vn 0.000000 1.000000 0.000000
vn 0.000000 1.000000 0.000000
vn 0.000000 1.000000 0.000000
vn 0.000000 1.000000 0.000000
vn 0.000000 1.000000 0.000000
vn 0.000000 1.000000 0.000000
vn 0.000000 1.000000 0.000000
vn 0.000000 1.000000 -0.000000
vn 0.000000 1.000000 -0.000000
vn 0.000000 1.000000 -0.000000
vn 0.000000 1.000000 -0.000000
vn 0.168173 0.958196 -0.231471
vn 0.168173 0.958196 -0.231471
vn 0.168173 0.958196 -0.231471
vn 0.168173 0.958196 -0.231471
vn -0.000000 0.958196 -0.286114
vn -0.000000 0.958196 -0.286114
vn -0.000000 0.958196 -0.286114
vn -0.000000 0.958196 -0.286114
vn -0.168173 0.958196 -0.231471
vn -0.168173 0.958196 -0.231471
vn -0.168173 0.958196 -0.231471
vn -0.168173 0.958196 -0.231471
vn -0.272110 0.958196 -0.088414
vn -0.272110 0.958196 -0.088414
vn -0.272110 0.958196 -0.088414
vn -0.272110 0.958196 -0.088414
vn -0.272110 0.958196 0.088414
vn -0.272110 0.958196 0.088414
vn -0.272110 0.958196 0.088414
vn -0.272110 0.958196 0.088414
vn -0.168173 0.958196 0.231471
vn -0.168173 0.958196 0.231471
vn -0.168173 0.958196 0.231471
vn -0.168173 0.958196 0.231471
vn 0.000000 0.958196 0.286114
vn 0.000000 0.958196 0.286114
vn 0.000000 0.958196 0.286114
vn 0.000000 0.958196 0.286114
vn 0.168173 0.958196 0.231471
vn 0.168173 0.958196 0.231471
vn 0.168173 0.958196 0.231471
vn 0.168173 0.958196 0.231471
vn 0.272110 0.958196 0.088414
vn 0.272110 0.958196 0.088414
vn 0.272110 0.958196 0.088414
vn 0.272110 0.958196 0.088414
vn 0.272110 0.958196 -0.088414
vn 0.272110 0.958196 -0.088414
vn 0.272110 0.958196 -0.088414
vn 0.272110 0.958196 -0.088414
vn 0.168173 -0.958196 -0.231471
vn 0.168173 -0.958196 -0.231471
vn 0.168173 -0.958196 -0.231471
vn 0.168173 -0.958196 -0.231471
vn -0.000000 -0.958196 -0.286113
vn -0.000000 -0.958196 -0.286113
vn -0.000000 -0.958196 -0.286114
vn -0.000000 -0.958196 -0.286113
vn -0.168173 -0.958196 -0.231471
vn -0.168173 -0.958196 -0.231471
vn -0.168173 -0.958196 -0.231471
vn -0.168173 -0.958196 -0.231471
vn -0.272110 -0.958196 -0.088414
vn -0.272110 -0.958196 -0.088414
vn -0.272110 -0.958196 -0.088414
vn -0.272110 -0.958196 -0.088414
vn -0.272110 -0.958196 0.088414
vn -0.272110 -0.958196 0.088414
vn -0.272110 -0.958196 0.088414
vn -0.272110 -0.958196 0.088414
vn -0.168173 -0.958196 0.231471
vn -0.168173 -0.958196 0.231471
vn -0.168173 -0.958196 0.231471
vn -0.168173 -0.958196 0.231471
vn 0.000000 -0.958196 0.286113
vn 0.000000 -0.958196 0.286113
vn 0.000000 -0.958196 0.286113
vn 0.000000 -0.958196 0.286113
vn 0.168173 -0.958196 0.231471
vn 0.168173 -0.958196 0.231471
vn 0.168173 -0.958196 0.231471
vn 0.168173 -0.958196 0.231471
vn 0.272110 -0.958196 0.088414
vn 0.272110 -0.958196 0.088414
vn 0.272110 -0.958196 0.088414
vn 0.272110 -0.958196 0.088414
vn 0.272110 -0.958196 -0.088414
vn 0.272110 -0.958196 -0.088414
vn 0.272110 -0.958196 -0.088414
vn 0.272110 -0.958196 -0.088414
vn 0.000000 -1.000000 0.000000
vn 0.000000 -1.000000 0.000000
vn 0.000000 -1.000000 0.000000
vn 0.000000 -1.000000 0.000000
vn 0.000000 -1.000000 -0.000001
vn 0.000000 -1.000000 -0.000001
vn 0.000000 -1.000000 -0.000001
vn 0.000000 -1.000000 -0.000001
vn 0.000000 -1.000000 -0.000001
vn 0.000000 -1.000000 -0.000001
vn 0.000000 -1.000000 -0.000001
vn 0.000000 -1.000000 -0.000001
vn 0.000000 -1.000000 0.000001
vn 0.000000 -1.000000 0.000001
vn 0.000000 -1.000000 0.000001
vn 0.000000 -1.000000 0.000001
vn 0.000000 -1.000000 0.000000
vn 0.000000 -1.000000 0.000000
vn 0.000000 -1.000000 0.000000
vn 0.000000 -1.000000 0.000000
vn 0.000000 -1.000000 -0.000001
vn 0.000000 -1.000000 -0.000001
vn 0.000000 -1.000000 -0.000001
vn 0.000000 -1.000000 -0.000001
vn 0.000000 -1.000000 0.000001
vn 0.000000 -1.000000 0.000001
vn 0.000000 -1.000000 0.000001
vn 0.000000 -1.000000 0.000001
vn 0.000000 -1.000000 0.000001
vn 0.000000 -1.000000 0.000001
vn 0.000000 -1.000000 0.000001
vn 0.000000 -1.000000 0.000001
vn 0.000000 -1.000000 0.000000
vn 0.000000 -1.000000 0.000000
vn 0.000000 -1.000000 0.000000
vn 0.000000 -1.000000 0.000000
vn 0.000000 -1.000000 0.000000
vn 0.000000 -1.000000 0.000000
vn 0.000000 -1.000000 0.000000
vn 0.000000 -1.000000 0.000000
vn -0.587785 0.000001 0.809017
vn -0.587785 0.000000 0.809017
vn -0.587785 0.000000 0.809017
vn -0.587785 0.000001 0.809017
vn 0.000000 0.000001 1.000000
vn 0.000000 0.000000 1.000000
vn 0.000000 0.000000 1.000000
vn 0.000000 0.000001 1.000000
vn 0.587785 0.000001 0.809017
vn 0.587785 0.000000 0.809017
vn 0.587785 0.000000 0.809017
vn 0.587785 0.000001 0.809017
vn 0.951057 0.000001 0.309017
vn 0.951057 0.000000 0.309017
vn 0.951057 0.000000 0.309017
vn 0.951057 0.000001 0.309017
vn 0.951056 0.000001 -0.309017
vn 0.951057 0.000000 -0.309017
vn 0.951057 0.000000 -0.309017
vn 0.951056 0.000001 -0.309017
vn 0.587785 0.000000 -0.809017
vn 0.587785 0.000000 -0.809017
vn 0.587785 0.000000 -0.809017
vn 0.587785 0.000000 -0.809017
vn -0.000000 0.000001 -1.000000
vn -0.000000 0.000000 -1.000000
vn -0.000000 0.000000 -1.000000
vn -0.000000 0.000001 -1.000000
vn -0.587785 0.000001 -0.809017
vn -0.587785 0.000000 -0.809017
vn -0.587785 0.000000 -0.809017
vn -0.587785 0.000001 -0.809017
vn -0.951056 0.000001 -0.309017
vn -0.951057 0.000000 -0.309017
vn -0.951057 0.000000 -0.309017
vn -0.951056 0.000001 -0.309017
vn -0.951057 0.000000 0.309017
vn -0.951057 0.000000 0.309017
vn -0.951057 0.000000 0.309017
vn -0.951057 0.000000 0.309017
vn 0.587785 -0.000000 -0.809017
vn 0.587785 -0.000000 -0.809017
vn 0.587785 -0.000000 -0.809017
vn 0.587785 -0.000000 -0.809017
vn -0.587785 0.000000 0.809017
vn -0.587785 0.000000 0.809017
vn -0.000000 -0.000000 -1.000000
vn -0.000000 -0.000000 -1.000000
vn -0.000000 -0.000000 -1.000000
vn -0.000000 -0.000000 -1.000000
vn 0.000000 0.000000 1.000000
vn 0.000000 0.000000 1.000000
vn -0.587785 -0.000000 -0.809017
vn -0.587785 -0.000000 -0.809017
vn -0.587785 -0.000000 -0.809017
vn -0.587785 -0.000000 -0.809017
vn 0.587785 0.000000 0.809017
vn 0.587785 0.000000 0.809017
vn -0.951057 -0.000000 -0.309017
vn -0.951057 -0.000000 -0.309017
vn -0.951057 -0.000000 -0.309017
vn -0.951057 -0.000000 -0.309017
vn 0.951057 0.000000 0.309017
vn 0.951057 0.000000 0.309017
vn -0.951056 -0.000000 0.309017
vn -0.951056 -0.000000 0.309017
vn -0.951056 -0.000000 0.309017
vn -0.951056 -0.000000 0.309017
vn 0.951056 0.000000 -0.309017
vn 0.951056 0.000000 -0.309017
vn -0.587785 -0.000000 0.809017
vn -0.587785 -0.000000 0.809017
vn -0.587785 -0.000000 0.809017
vn -0.587785 -0.000000 0.809017
vn 0.587785 0.000000 -0.809017
vn 0.587785 0.000000 -0.809017
vn 0.000000 -0.000000 1.000000
vn 0.000000 -0.000000 1.000000
vn 0.000000 -0.000000 1.000000
vn 0.000000 -0.000000 1.000000
vn -0.000000 0.000000 -1.000000
vn -0.000000 0.000000 -1.000000
vn 0.587785 -0.000000 0.809017
vn 0.587785 -0.000000 0.809017
vn 0.587785 -0.000000 0.809017
vn 0.587785 -0.000000 0.809017
vn -0.587785 0.000000 -0.809017
vn -0.587785 0.000000 -0.809017
vn 0.951057 -0.000000 0.309017
vn 0.951057 -0.000000 0.309017
vn 0.951057 -0.000000 0.309017
vn 0.951057 -0.000000 0.309017
vn -0.951056 0.000000 -0.309017
vn -0.951056 0.000000 -0.309017
vn 0.951057 -0.000000 -0.309017
vn 0.951057 -0.000000 -0.309017
vn 0.951057 -0.000000 -0.309017
vn 0.951057 -0.000000 -0.309017
vn -0.951057 0.000000 0.309017
vn -0.951057 0.000000 0.309017
s off
g pTorus1
usemtl initialShadingGroup
f 2/71/1 1/72/2 11/73/3 12/74/4
f 3/77/5 2/71/6 12/74/7 13/78/8
f 4/81/9 3/77/10 13/78/11 14/82/12
f 5/85/13 4/81/14 14/82/15 15/86/16
f 6/89/17 5/85/18 15/86/19 16/90/20
f 7/87/21 6/89/22 16/90/23 17/88/24
f 8/83/25 7/87/26 17/88/27 18/84/28
f 9/79/29 8/83/30 18/84/31 19/80/32
f 10/75/33 9/79/34 19/80/35 20/76/36
f 1/72/37 10/75/38 20/76/39 11/73/40
f 12/35/41 11/29/42 21/30/43 22/36/44
f 13/111/45 12/112/46 22/113/47 23/114/48
f 14/2/49 13/5/50 23/6/51 24/3/52
f 15/1/53 14/2/54 24/3/55 25/4/56
f 16/9/57 15/1/58 25/4/59 26/10/60
f 17/15/61 16/9/62 26/10/63 27/16/64
f 18/119/65 17/120/66 27/121/67 28/122/68
f 19/22/69 18/25/70 28/26/71 29/23/72
f 20/21/73 19/22/74 29/23/75 30/24/76
f 11/29/77 20/21/78 30/24/79 21/30/80
f 22/36/81 21/30/82 31/34/83 32/39/84
f 23/114/85 22/113/86 32/115/87 33/116/88
f 24/3/89 23/6/90 33/11/91 34/7/92
f 25/4/93 24/3/94 34/7/95 35/8/96
f 26/10/97 25/4/98 35/8/99 36/14/100
f 27/16/101 26/10/102 36/14/103 37/19/104
f 28/122/105 27/121/106 37/123/107 38/124/108
f 29/23/109 28/26/110 38/31/111 39/27/112
f 30/24/113 29/23/114 39/27/115 40/28/116
f 21/30/117 30/24/118 40/28/119 31/34/120
f 52/91/121 51/92/122 53/93/123 54/94/124
f 55/97/125 52/91/126 54/94/127 56/98/128
f 57/101/129 55/97/130 56/98/131 58/102/132
f 59/105/133 57/101/134 58/102/135 60/106/136
f 61/109/137 59/105/138 60/106/139 62/110/140
f 63/107/141 61/109/142 62/110/143 64/108/144
f 65/103/145 63/107/146 64/108/147 66/104/148
f 67/99/149 65/103/150 66/104/151 68/100/152
f 69/95/153 67/99/154 68/100/155 70/96/156
f 51/92/157 69/95/158 70/96/159 53/93/160
s 1
f 2/66/161 42/67/162 41/61/163 1/60/164
s 2
f 3/127/165 43/128/166 42/129/167 2/130/168
s 3
f 4/44/169 44/43/170 43/49/171 3/50/172
s 4
f 5/41/173 45/42/174 44/43/175 4/44/176
s 5
f 6/45/177 46/46/178 45/42/179 5/41/180
s 6
f 7/51/181 47/52/182 46/46/183 6/45/184
s 7
f 8/133/185 48/134/186 47/135/187 7/136/188
s 8
f 9/59/189 49/58/190 48/64/191 8/65/192
s 9
f 10/56/193 50/57/194 49/58/195 9/59/196
s 10
f 1/60/197 41/61/198 50/57/199 10/56/200
s off
f 32/39/201 31/34/202 51/38/203 52/40/204
s 1
f 41/61/163 42/67/162 54/70/205 53/68/206
s off
f 33/116/207 32/115/208 52/117/209 55/118/210
s 2
f 42/129/167 43/128/166 56/131/211 54/132/212
s off
f 34/7/213 33/11/214 55/17/215 57/12/216
s 3
f 43/49/171 44/43/170 58/48/217 56/54/218
s off
f 35/8/219 34/7/220 57/12/221 59/13/222
s 4
f 44/43/175 45/42/174 60/47/223 58/48/224
s off
f 36/14/225 35/8/226 59/13/227 61/18/228
s 5
f 45/42/179 46/46/178 62/53/229 60/47/230
s off
f 37/19/231 36/14/232 61/18/233 63/20/234
s 6
f 46/46/183 47/52/182 64/55/235 62/53/236
s off
f 38/124/237 37/123/238 63/125/239 65/126/240
s 7
f 47/135/187 48/134/186 66/137/241 64/138/242
s off
f 39/27/243 38/31/244 65/37/245 67/32/246
s 8
f 48/64/191 49/58/190 68/63/247 66/69/248
s off
f 40/28/249 39/27/250 67/32/251 69/33/252
s 9
f 49/58/195 50/57/194 70/62/253 68/63/254
s off
f 31/34/255 40/28/256 69/33/257 51/38/258
s 10
f 50/57/199 41/61/198 53/68/259 70/62/260
